<?xml version="1.0" encoding="utf-8"?>
<!-- Generator: Adobe Illustrator 19.2.1, SVG Export Plug-In . SVG Version: 6.00 Build 0)  -->
<svg version="1.1" id="Layer_1" xmlns="http://www.w3.org/2000/svg" xmlns:xlink="http://www.w3.org/1999/xlink" x="0px" y="0px"
	 viewBox="0 0 1000 435" style="enable-background:new 0 0 1000 435;" xml:space="preserve">
<style type="text/css">
	.st0{fill:#FFFFFF;stroke:url(#SVGID_1_);stroke-width:1.5;stroke-miterlimit:10;}
	.st1{fill:#FFFFFF;stroke:url(#SVGID_2_);stroke-width:1.5;stroke-miterlimit:10;}
	.st2{fill:#F2F2F2;}
	.st3{fill:none;stroke:#85CBA8;stroke-width:3;stroke-miterlimit:10;}
	.st4{fill:#85CBA8;}
	.st5{enable-background:new    ;}
	.st6{fill:#231F20;}
	.st7{fill:#434343;}
	.st8{fill:#FFFFFF;stroke:#595A5C;stroke-width:3;stroke-miterlimit:10;}
	.st9{fill:none;stroke:#595A5C;stroke-width:2;stroke-miterlimit:10;}
	.st10{fill:none;stroke:#595A5C;stroke-width:3;stroke-miterlimit:10;}
	.st11{fill:#595A5C;}
	.st12{fill:#FFFFFF;}
	.st13{fill:none;stroke:#595A5C;stroke-width:2;}
	.st14{fill:#FFFFFF;stroke:#595A5C;stroke-width:1.5;stroke-miterlimit:10;}
	.st15{fill:none;stroke:#595A5C;stroke-width:0.75;}
</style>
<linearGradient id="SVGID_1_" gradientUnits="userSpaceOnUse" x1="299.985" y1="785.6612" x2="681.0151" y2="465.9388" gradientTransform="matrix(1 0 0 1 0 -532)">
	<stop  offset="0" style="stop-color:#77C3E2"/>
	<stop  offset="1" style="stop-color:#83CAA6"/>
</linearGradient>
<polyline class="st0" points="564.3,8.5 742.2,8.5 742.2,179.1 238.8,179.1 238.8,8.5 418.9,8.5 "/>
<linearGradient id="SVGID_2_" gradientUnits="userSpaceOnUse" x1="299.985" y1="1039.0612" x2="681.015" y2="719.3388" gradientTransform="matrix(1 0 0 1 0 -532)">
	<stop  offset="0" style="stop-color:#77C3E2"/>
	<stop  offset="1" style="stop-color:#83CAA6"/>
</linearGradient>
<polyline class="st1" points="564.3,261.9 742.2,261.9 742.2,432.5 238.8,432.5 238.8,261.9 418.9,261.9 "/>
<path class="st2" d="M406.4,420.4H257.3c-0.7,0-1.3-0.6-1.3-1.3V283c0-0.7,0.6-1.3,1.3-1.3h149.1c0.7,0,1.3,0.6,1.3,1.3v136.1
	C407.8,419.8,407.2,420.4,406.4,420.4z"/>
<path class="st2" d="M721.5,420.4H572.3c-0.7,0-1.3-0.6-1.3-1.3V283c0-0.7,0.6-1.3,1.3-1.3h149.1c0.7,0,1.3,0.6,1.3,1.3v136.1
	C722.8,419.8,722.2,420.4,721.5,420.4z"/>
<line class="st3" x1="209.2" y1="73.9" x2="108.1" y2="73.9"/>
<polygon class="st4" points="113.8,73.8 113.8,82 106.7,78 99.6,73.9 106.6,69.8 113.7,65.6 "/>
<polygon class="st4" points="207.5,73.9 207.4,65.7 214.6,69.8 221.7,73.8 214.6,78 207.6,82.1 "/>
<line class="st3" x1="209.2" y1="98.1" x2="108.1" y2="98.1"/>
<polygon class="st4" points="113.8,98 113.8,106.2 106.7,102.2 99.6,98.1 106.6,94 113.7,89.8 "/>
<polygon class="st4" points="207.5,98.1 207.4,89.9 214.6,94 221.7,98 214.6,102.2 207.6,106.3 "/>
<line class="st3" x1="209.2" y1="122.3" x2="108.1" y2="122.3"/>
<polygon class="st4" points="113.8,122.2 113.8,130.4 106.7,126.4 99.6,122.4 106.6,118.2 113.7,114 "/>
<polygon class="st4" points="207.5,122.4 207.4,114.2 214.6,118.2 221.7,122.2 214.6,126.4 207.6,130.5 "/>
<line class="st3" x1="870.6" y1="73.9" x2="769.4" y2="73.9"/>
<polygon class="st4" points="775.1,73.8 775.2,82 768,78 760.9,73.9 768,69.8 775,65.6 "/>
<polygon class="st4" points="868.8,73.9 868.8,65.7 875.9,69.8 883,73.8 876,78 868.9,82.1 "/>
<line class="st3" x1="870.6" y1="98.1" x2="769.4" y2="98.1"/>
<polygon class="st4" points="775.1,98 775.2,106.2 768,102.2 760.9,98.1 768,94 775,89.8 "/>
<polygon class="st4" points="868.8,98.1 868.8,89.9 875.9,94 883,98 876,102.2 868.9,106.3 "/>
<line class="st3" x1="870.6" y1="122.3" x2="769.4" y2="122.3"/>
<polygon class="st4" points="775.1,122.2 775.2,130.4 768,126.4 760.9,122.4 768,118.2 775,114 "/>
<polygon class="st4" points="868.8,122.4 868.8,114.2 875.9,118.2 883,122.2 876,126.4 868.9,130.5 "/>
<g class="st5">
	<path class="st6" d="M17.4,155.5h-1.9v-5.1h-5.3v5.1H8.4v-11.4h1.9v4.7h5.3v-4.7h1.9L17.4,155.5L17.4,155.5z"/>
	<path class="st6" d="M24.4,155.5h-1.9v-9.8h-3.4v-1.6h8.6v1.6h-3.4L24.4,155.5L24.4,155.5z"/>
	<path class="st6" d="M33.4,155.5h-1.9v-9.8h-3.4v-1.6h8.6v1.6h-3.4V155.5z"/>
	<path class="st6" d="M46.1,147.5c0,1.2-0.4,2.1-1.2,2.7s-1.9,1-3.3,1h-1.2v4.3h-1.9v-11.4h3.3c1.4,0,2.5,0.3,3.2,0.9
		S46.1,146.4,46.1,147.5z M40.4,149.7h1c1,0,1.7-0.2,2.1-0.5s0.7-0.9,0.7-1.6c0-0.7-0.2-1.1-0.6-1.5s-1-0.5-1.9-0.5h-1.3L40.4,149.7
		L40.4,149.7z"/>
	<path class="st6" d="M57.1,155.5h-1.8v-7.4c0-0.9,0-1.6,0.1-2.1c-0.1,0.1-0.3,0.3-0.4,0.4c-0.2,0.2-0.8,0.6-1.8,1.4l-0.9-1.2
		l3.4-2.6h1.5C57.1,144.1,57.1,155.5,57.1,155.5z"/>
	<path class="st6" d="M61.2,154.5c0-0.4,0.1-0.7,0.3-0.9s0.5-0.3,0.9-0.3c0.4,0,0.7,0.1,0.9,0.3s0.3,0.5,0.3,0.9
		c0,0.4-0.1,0.7-0.3,0.9c-0.2,0.2-0.5,0.3-0.9,0.3s-0.7-0.1-0.9-0.3C61.3,155.2,61.2,154.9,61.2,154.5z"/>
	<path class="st6" d="M70.7,155.5h-1.8v-7.4c0-0.9,0-1.6,0.1-2.1c-0.1,0.1-0.3,0.3-0.4,0.4c-0.2,0.2-0.8,0.6-1.8,1.4l-0.9-1.2
		l3.4-2.6h1.5L70.7,155.5L70.7,155.5z"/>
</g>
<g class="st5">
	<path class="st6" d="M935.4,140.4c0,0.8-0.3,1.3-0.9,1.8s-1.4,0.6-2.5,0.6c-1.1,0-2-0.2-2.7-0.5v-0.8c0.9,0.4,1.8,0.6,2.7,0.6
		c0.8,0,1.5-0.1,1.9-0.4s0.7-0.6,0.7-1.1c0-0.4-0.2-0.8-0.5-1.1c-0.3-0.3-0.9-0.6-1.7-0.9c-0.8-0.3-1.4-0.6-1.8-0.8
		s-0.6-0.5-0.8-0.8c-0.2-0.3-0.3-0.6-0.3-1c0-0.6,0.3-1.1,0.8-1.5c0.5-0.4,1.3-0.6,2.2-0.6c0.9,0,1.8,0.2,2.6,0.5l-0.3,0.7
		c-0.8-0.3-1.6-0.5-2.3-0.5c-0.7,0-1.2,0.1-1.6,0.3s-0.6,0.5-0.6,1c0,0.4,0.2,0.8,0.5,1.1c0.3,0.3,0.9,0.6,1.8,0.9
		c0.8,0.3,1.3,0.5,1.7,0.7c0.3,0.2,0.6,0.5,0.8,0.8C935.3,139.7,935.4,140,935.4,140.4z"/>
	<path class="st6" d="M941,142.8c-1.2,0-2.2-0.4-2.9-1.1s-1-1.8-1-3.2c0-1.4,0.3-2.4,1-3.3c0.7-0.8,1.6-1.2,2.7-1.2
		c1,0,1.8,0.3,2.4,1s0.9,1.6,0.9,2.8v0.6h-6.1c0,1.2,0.3,2.1,0.8,2.7c0.5,0.6,1.3,0.9,2.3,0.9c0.5,0,0.9,0,1.3-0.1s0.8-0.2,1.4-0.4
		v0.7c-0.5,0.2-0.9,0.4-1.3,0.4S941.5,142.8,941,142.8z M940.8,134.7c-0.8,0-1.5,0.3-2,0.8c-0.5,0.5-0.8,1.3-0.9,2.3h5.2
		c0-1-0.2-1.8-0.6-2.3C942.1,134.9,941.5,134.7,940.8,134.7z"/>
	<path class="st6" d="M949.7,134c0.4,0,0.7,0,1.2,0.1l-0.1,0.7c-0.4-0.1-0.7-0.1-1.1-0.1c-0.7,0-1.3,0.3-1.8,0.9
		c-0.5,0.6-0.7,1.4-0.7,2.3v4.7h-0.8v-8.5h0.7l0.1,1.5h0.1c0.3-0.6,0.7-1.1,1.1-1.3C948.6,134.1,949.1,134,949.7,134z"/>
	<path class="st6" d="M954.4,142.6l-3.3-8.5h0.8l2.2,5.8c0.3,0.7,0.5,1.4,0.7,1.9h0c0.2-0.7,0.4-1.4,0.7-2l2.2-5.8h0.8l-3.3,8.5
		H954.4z"/>
	<path class="st6" d="M963.3,142.8c-1.2,0-2.2-0.4-2.9-1.1s-1-1.8-1-3.2c0-1.4,0.3-2.4,1-3.3c0.7-0.8,1.6-1.2,2.7-1.2
		c1,0,1.8,0.3,2.4,1s0.9,1.6,0.9,2.8v0.6h-6.1c0,1.2,0.3,2.1,0.8,2.7c0.5,0.6,1.3,0.9,2.3,0.9c0.5,0,0.9,0,1.3-0.1s0.8-0.2,1.4-0.4
		v0.7c-0.5,0.2-0.9,0.4-1.3,0.4S963.8,142.8,963.3,142.8z M963.1,134.7c-0.8,0-1.5,0.3-2,0.8c-0.5,0.5-0.8,1.3-0.9,2.3h5.2
		c0-1-0.2-1.8-0.6-2.3S963.9,134.7,963.1,134.7z"/>
	<path class="st6" d="M972,134c0.4,0,0.7,0,1.2,0.1l-0.1,0.7c-0.4-0.1-0.7-0.1-1.1-0.1c-0.7,0-1.3,0.3-1.8,0.9
		c-0.5,0.6-0.7,1.4-0.7,2.3v4.7h-0.8v-8.5h0.7l0.1,1.5h0.1c0.3-0.6,0.7-1.1,1.1-1.3C971,134.1,971.5,134,972,134z"/>
</g>
<g class="st5">
	<path class="st7" d="M431.2,4.6c0,0.7-0.2,1.3-0.6,1.8s-1,0.8-1.8,1v0.1c0.9,0.1,1.6,0.4,2.1,0.9s0.7,1.1,0.7,1.8
		c0,1.1-0.4,1.9-1.2,2.5s-1.9,0.9-3.3,0.9c-1.3,0-2.3-0.2-3.2-0.6v-1.6c0.5,0.2,1,0.4,1.5,0.6s1.1,0.2,1.6,0.2c0.9,0,1.5-0.2,2-0.5
		s0.7-0.8,0.7-1.5c0-0.6-0.2-1.1-0.7-1.3s-1.2-0.4-2.3-0.4h-1V6.7h1c1.8,0,2.7-0.6,2.7-1.9c0-0.5-0.2-0.9-0.5-1.1s-0.8-0.4-1.4-0.4
		c-0.4,0-0.8,0.1-1.2,0.2s-0.9,0.4-1.4,0.7l-0.9-1.3c1-0.8,2.3-1.2,3.6-1.2c1.2,0,2,0.2,2.7,0.7C430.8,3,431.2,3.7,431.2,4.6z"/>
	<path class="st7" d="M441.9,13.4H440V3.5h-3.4V1.9h8.6v1.6h-3.4L441.9,13.4L441.9,13.4z"/>
	<path class="st7" d="M451.9,3.4c-1.1,0-1.9,0.4-2.5,1.1c-0.6,0.8-0.9,1.8-0.9,3.1c0,1.4,0.3,2.5,0.9,3.2c0.6,0.7,1.4,1.1,2.6,1.1
		c0.5,0,1,0,1.4-0.1s0.9-0.2,1.4-0.4V13c-0.9,0.3-1.9,0.5-3,0.5c-1.7,0-3-0.5-3.9-1.5s-1.3-2.5-1.3-4.3c0-1.2,0.2-2.2,0.7-3.1
		c0.4-0.9,1.1-1.6,1.9-2c0.8-0.5,1.8-0.7,2.9-0.7c1.2,0,2.2,0.2,3.2,0.7l-0.7,1.6c-0.4-0.2-0.8-0.3-1.2-0.5S452.3,3.4,451.9,3.4z"/>
	<path class="st7" d="M464.7,5.4c0,1.2-0.4,2.1-1.2,2.7s-1.9,1-3.3,1H459v4.3h-1.9V1.9h3.3c1.4,0,2.5,0.3,3.2,0.9
		S464.7,4.3,464.7,5.4z M459,7.5h1c1,0,1.7-0.2,2.1-0.5s0.7-0.9,0.7-1.6c0-0.7-0.2-1.1-0.6-1.5s-1-0.5-1.9-0.5H459L459,7.5L459,7.5z
		"/>
	<path class="st7" d="M476,3.4c-1.1,0-1.9,0.4-2.5,1.1c-0.6,0.8-0.9,1.8-0.9,3.1c0,1.4,0.3,2.5,0.9,3.2c0.6,0.7,1.4,1.1,2.6,1.1
		c0.5,0,1,0,1.4-0.1s0.9-0.2,1.4-0.4V13c-0.9,0.3-1.9,0.5-3,0.5c-1.7,0-3-0.5-3.9-1.5s-1.3-2.5-1.3-4.3c0-1.2,0.2-2.2,0.7-3.1
		c0.4-0.9,1.1-1.6,1.9-2c0.8-0.5,1.8-0.7,2.9-0.7c1.2,0,2.2,0.2,3.2,0.7l-0.7,1.6c-0.4-0.2-0.8-0.3-1.2-0.5S476.5,3.4,476,3.4z"/>
	<path class="st7" d="M488.8,9c0,1.4-0.4,2.5-1.1,3.3c-0.7,0.8-1.7,1.2-3,1.2c-0.8,0-1.5-0.2-2.1-0.5s-1.1-0.9-1.4-1.6
		c-0.3-0.7-0.5-1.5-0.5-2.4c0-1.4,0.4-2.5,1.1-3.3s1.7-1.2,3-1.2c1.2,0,2.2,0.4,3,1.2C488.4,6.6,488.8,7.7,488.8,9z M482.5,9
		c0,2,0.7,3,2.2,3c1.5,0,2.2-1,2.2-3c0-2-0.7-3-2.2-3c-0.8,0-1.3,0.3-1.7,0.8C482.6,7.3,482.5,8.1,482.5,9z"/>
	<path class="st7" d="M498.5,13.4h-1.8V8.1c0-0.7-0.1-1.2-0.4-1.5c-0.3-0.3-0.7-0.5-1.3-0.5c-0.8,0-1.3,0.2-1.7,0.7
		s-0.5,1.2-0.5,2.3v4.3h-1.8V4.7h1.4l0.3,1.1h0.1c0.3-0.4,0.6-0.7,1.1-1s1-0.3,1.6-0.3c2.1,0,3.1,1.1,3.1,3.2L498.5,13.4L498.5,13.4
		z"/>
	<path class="st7" d="M508.6,13.4h-1.8V8.1c0-0.7-0.1-1.2-0.4-1.5c-0.3-0.3-0.7-0.5-1.3-0.5c-0.8,0-1.3,0.2-1.7,0.7
		s-0.5,1.2-0.5,2.3v4.3H501V4.7h1.4l0.3,1.1h0.1c0.3-0.4,0.6-0.7,1.1-1s1-0.3,1.6-0.3c2.1,0,3.1,1.1,3.1,3.2L508.6,13.4L508.6,13.4z
		"/>
	<path class="st7" d="M515,13.5c-1.3,0-2.4-0.4-3.2-1.2s-1.1-1.9-1.1-3.2c0-1.4,0.4-2.5,1.1-3.3s1.7-1.2,2.9-1.2c1.1,0,2,0.3,2.7,1
		c0.7,0.7,1,1.6,1,2.9v1h-5.8c0,0.8,0.3,1.5,0.7,1.9c0.4,0.4,1,0.7,1.8,0.7c0.5,0,1,0,1.4-0.1c0.4-0.1,0.9-0.3,1.4-0.5v1.5
		c-0.4,0.2-0.9,0.4-1.4,0.5C516.1,13.5,515.5,13.5,515,13.5z M514.6,6c-0.6,0-1.1,0.2-1.4,0.6s-0.6,0.9-0.6,1.6h3.9
		c0-0.7-0.2-1.3-0.5-1.6C515.7,6.1,515.2,6,514.6,6z"/>
	<path class="st7" d="M523.9,13.5c-1.3,0-2.3-0.4-3-1.1s-1-1.9-1-3.3c0-1.5,0.4-2.6,1.1-3.4s1.7-1.2,3.1-1.2c0.9,0,1.7,0.2,2.5,0.5
		l-0.6,1.5c-0.8-0.3-1.4-0.5-1.9-0.5c-1.5,0-2.2,1-2.2,3c0,1,0.2,1.7,0.6,2.2c0.4,0.5,0.9,0.7,1.6,0.7c0.8,0,1.6-0.2,2.3-0.6V13
		c-0.3,0.2-0.7,0.3-1.1,0.4C524.9,13.5,524.4,13.5,523.9,13.5z"/>
	<path class="st7" d="M531.5,12c0.4,0,0.9-0.1,1.3-0.2v1.4c-0.2,0.1-0.5,0.2-0.8,0.2s-0.7,0.1-1,0.1c-1.7,0-2.6-0.9-2.6-2.8V6.1
		h-1.2V5.3l1.3-0.7l0.6-1.8h1.1v1.9h2.5v1.4h-2.5v4.6c0,0.4,0.1,0.8,0.3,1C530.9,11.9,531.2,12,531.5,12z"/>
	<path class="st7" d="M534.5,2.4c0-0.3,0.1-0.6,0.3-0.8s0.4-0.3,0.8-0.3c0.3,0,0.6,0.1,0.8,0.3s0.3,0.4,0.3,0.8
		c0,0.3-0.1,0.6-0.3,0.7s-0.4,0.3-0.8,0.3c-0.3,0-0.6-0.1-0.8-0.3S534.5,2.7,534.5,2.4z M536.4,13.4h-1.8V4.7h1.8V13.4z"/>
	<path class="st7" d="M546.7,9c0,1.4-0.4,2.5-1.1,3.3c-0.7,0.8-1.7,1.2-3,1.2c-0.8,0-1.5-0.2-2.1-0.5s-1.1-0.9-1.4-1.6
		c-0.3-0.7-0.5-1.5-0.5-2.4c0-1.4,0.4-2.5,1.1-3.3s1.7-1.2,3-1.2c1.2,0,2.2,0.4,3,1.2C546.4,6.6,546.7,7.7,546.7,9z M540.4,9
		c0,2,0.7,3,2.2,3c1.5,0,2.2-1,2.2-3c0-2-0.7-3-2.2-3c-0.8,0-1.3,0.3-1.7,0.8C540.6,7.3,540.4,8.1,540.4,9z"/>
	<path class="st7" d="M556.4,13.4h-1.8V8.1c0-0.7-0.1-1.2-0.4-1.5c-0.3-0.3-0.7-0.5-1.3-0.5c-0.8,0-1.3,0.2-1.7,0.7
		s-0.5,1.2-0.5,2.3v4.3h-1.8V4.7h1.4l0.3,1.1h0.1c0.3-0.4,0.6-0.7,1.1-1s1-0.3,1.6-0.3c2.1,0,3.1,1.1,3.1,3.2L556.4,13.4L556.4,13.4
		z"/>
	<path class="st7" d="M564.8,10.9c0,0.8-0.3,1.5-0.9,1.9c-0.6,0.4-1.5,0.7-2.6,0.7c-1.2,0-2.1-0.2-2.8-0.5v-1.6c1,0.5,2,0.7,2.8,0.7
		c1.1,0,1.7-0.3,1.7-1c0-0.2-0.1-0.4-0.2-0.5s-0.3-0.3-0.6-0.5c-0.3-0.2-0.7-0.3-1.2-0.5c-1-0.4-1.7-0.8-2-1.2s-0.5-0.9-0.5-1.5
		c0-0.7,0.3-1.3,0.9-1.7c0.6-0.4,1.4-0.6,2.4-0.6c1,0,2,0.2,2.9,0.6l-0.6,1.4c-0.9-0.4-1.7-0.6-2.4-0.6c-1,0-1.5,0.3-1.5,0.8
		c0,0.3,0.1,0.5,0.4,0.7c0.3,0.2,0.8,0.4,1.7,0.8c0.7,0.3,1.2,0.5,1.6,0.8c0.3,0.2,0.6,0.5,0.7,0.8S564.8,10.5,564.8,10.9z"/>
</g>
<line class="st3" x1="554.9" y1="142.8" x2="426" y2="142.8"/>
<g>
	<path class="st8" d="M996.4,112.1H902c-0.7,0-1.3-0.6-1.3-1.3V81.2c0-0.7,0.6-1.3,1.3-1.3h94.3c0.7,0,1.3,0.6,1.3,1.3v29.6
		C997.7,111.5,997.1,112.1,996.4,112.1z"/>
	<g>
		<line class="st9" x1="942.3" y1="90.4" x2="942.3" y2="101.6"/>
		<line class="st9" x1="949.3" y1="90.4" x2="949.3" y2="101.6"/>
		<line class="st9" x1="956.2" y1="90.4" x2="956.2" y2="101.6"/>
		<line class="st9" x1="963.2" y1="90.4" x2="963.2" y2="101.6"/>
		<line class="st9" x1="914.4" y1="90.4" x2="914.4" y2="101.6"/>
		<line class="st9" x1="921.4" y1="90.4" x2="921.4" y2="101.6"/>
		<line class="st9" x1="928.4" y1="90.4" x2="928.4" y2="101.6"/>
		<line class="st9" x1="935.3" y1="90.4" x2="935.3" y2="101.6"/>
		<line class="st9" x1="970.2" y1="90.4" x2="970.2" y2="101.6"/>
		<line class="st9" x1="977.2" y1="90.4" x2="977.2" y2="101.6"/>
		<line class="st9" x1="984.1" y1="90.4" x2="984.1" y2="101.6"/>
	</g>
	<line class="st10" x1="914.2" y1="117.9" x2="984.1" y2="117.9"/>
</g>
<g>
	<path class="st8" d="M77.4,127.7H3.9c-0.7,0-1.3-0.6-1.3-1.3V67.9c0-0.7,0.6-1.3,1.3-1.3h73.5c0.7,0,1.3,0.6,1.3,1.3v58.5
		C78.7,127.1,78.1,127.7,77.4,127.7z"/>
	<rect x="3" y="67.1" class="st11" width="75.6" height="15.4"/>
	<circle class="st12" cx="13.3" cy="74.8" r="2.5"/>
	<circle class="st12" cx="20.7" cy="74.8" r="2.5"/>
	<circle class="st12" cx="28.1" cy="74.8" r="2.5"/>
	<g>
		<line class="st13" x1="16.6" y1="110.5" x2="36.4" y2="110.5"/>
		<line class="st13" x1="16.6" y1="92.9" x2="49" y2="92.9"/>
		<line class="st13" x1="16.6" y1="101.7" x2="49" y2="101.7"/>
	</g>
</g>
<g>
	<path class="st2" d="M406.9,74.8H257.3c-0.7,0-1.3-0.6-1.3-1.3V36.6c0-0.7,0.6-1.3,1.3-1.3h149.6c0.7,0,1.3,0.6,1.3,1.3v36.9
		C408.2,74.2,407.6,74.8,406.9,74.8z"/>
	<path class="st2" d="M406.9,118.2H257.3c-0.7,0-1.3-0.6-1.3-1.3v-37c0-0.7,0.6-1.3,1.3-1.3h149.6c0.7,0,1.3,0.6,1.3,1.3v36.9
		C408.2,117.6,407.6,118.2,406.9,118.2z"/>
	<path class="st2" d="M406.9,161.9H257.3c-0.7,0-1.3-0.6-1.3-1.3v-36.9c0-0.7,0.6-1.3,1.3-1.3h149.6c0.7,0,1.3,0.6,1.3,1.3v36.9
		C408.2,161.3,407.6,161.9,406.9,161.9z"/>
	<g class="st5">
		<path class="st11" d="M314,137.7c0-0.5,0.2-0.7,0.5-0.7c0.1,0,0.3,0.1,0.4,0.2c0.1,0.1,0.1,0.3,0.1,0.5c0,0.2,0,0.4-0.1,0.5
			c-0.1,0.1-0.2,0.2-0.4,0.2C314.1,138.4,314,138.2,314,137.7z M314.8,147.8h-0.7v-7.9h0.7V147.8z"/>
		<path class="st11" d="M327.3,147.8v-5.2c0-0.8-0.2-1.3-0.5-1.7c-0.3-0.4-0.8-0.5-1.4-0.5c-0.8,0-1.4,0.2-1.8,0.7
			c-0.4,0.4-0.6,1.1-0.6,2.1v4.6h-0.7v-5.4c0-1.3-0.6-2-1.8-2c-0.8,0-1.4,0.2-1.8,0.7c-0.4,0.5-0.6,1.3-0.6,2.3v4.4h-0.7v-7.9h0.6
			l0.2,1.1h0c0.2-0.4,0.5-0.7,0.9-0.9c0.4-0.2,0.8-0.3,1.3-0.3c1.2,0,2,0.5,2.4,1.4h0c0.3-0.5,0.6-0.8,1-1s0.9-0.4,1.5-0.4
			c0.9,0,1.5,0.2,1.9,0.7s0.6,1.2,0.6,2.2v5.2L327.3,147.8L327.3,147.8L327.3,147.8z"/>
		<path class="st11" d="M335.4,147.8l-0.2-1.3h-0.1c-0.4,0.5-0.8,0.9-1.2,1.1c-0.4,0.2-0.9,0.3-1.5,0.3c-0.8,0-1.4-0.2-1.8-0.6
			s-0.6-0.9-0.6-1.7c0-0.8,0.3-1.4,1-1.8c0.6-0.4,1.6-0.7,2.8-0.7l1.5,0v-0.5c0-0.8-0.2-1.3-0.5-1.7c-0.3-0.4-0.8-0.6-1.5-0.6
			c-0.7,0-1.5,0.2-2.3,0.6l-0.3-0.6c0.9-0.4,1.7-0.6,2.6-0.6c0.9,0,1.5,0.2,1.9,0.7s0.6,1.2,0.6,2.1v5.3L335.4,147.8L335.4,147.8z
			 M332.5,147.3c0.8,0,1.5-0.2,2-0.7c0.5-0.5,0.7-1.2,0.7-2v-0.8l-1.4,0.1c-1.1,0.1-1.9,0.2-2.4,0.5c-0.5,0.3-0.7,0.8-0.7,1.4
			c0,0.5,0.2,0.9,0.5,1.2C331.5,147.2,332,147.3,332.5,147.3z"/>
		<path class="st11" d="M344.7,139.9v0.5l-1.6,0.1c0.4,0.5,0.7,1.1,0.7,1.8c0,0.8-0.3,1.4-0.8,1.9s-1.2,0.7-2,0.7
			c-0.4,0-0.6,0-0.8,0c-0.3,0.1-0.5,0.3-0.7,0.5c-0.2,0.2-0.2,0.4-0.2,0.6c0,0.3,0.1,0.4,0.3,0.6c0.2,0.1,0.5,0.2,1,0.2h1.4
			c0.9,0,1.5,0.2,2,0.5s0.7,0.9,0.7,1.5c0,0.8-0.3,1.5-1,1.9c-0.7,0.5-1.6,0.7-2.9,0.7c-1,0-1.8-0.2-2.3-0.6
			c-0.5-0.4-0.8-0.9-0.8-1.6c0-0.5,0.2-1,0.5-1.4c0.3-0.4,0.8-0.6,1.4-0.7c-0.2-0.1-0.4-0.2-0.6-0.4s-0.2-0.4-0.2-0.6
			c0-0.5,0.3-1,1-1.4c-0.5-0.2-0.8-0.5-1.1-0.9s-0.4-0.9-0.4-1.4c0-0.8,0.3-1.4,0.8-1.9c0.5-0.5,1.2-0.7,2-0.7
			c0.5,0,0.9,0.1,1.2,0.2H344.7z M338.3,149.1c0,1.1,0.8,1.6,2.4,1.6c2.1,0,3.1-0.7,3.1-2c0-0.5-0.2-0.8-0.5-1
			c-0.3-0.2-0.9-0.3-1.6-0.3h-1.3C339,147.4,338.3,148,338.3,149.1z M338.9,142.4c0,0.6,0.2,1.1,0.6,1.4s0.9,0.5,1.5,0.5
			c0.7,0,1.2-0.2,1.5-0.5c0.4-0.3,0.5-0.8,0.5-1.5c0-0.7-0.2-1.2-0.5-1.5c-0.4-0.3-0.9-0.5-1.5-0.5c-0.6,0-1.1,0.2-1.5,0.5
			S338.9,141.7,338.9,142.4z"/>
		<path class="st11" d="M349.5,148c-1.1,0-2-0.4-2.7-1.1s-1-1.7-1-3c0-1.3,0.3-2.3,0.9-3c0.6-0.8,1.5-1.1,2.5-1.1
			c0.9,0,1.7,0.3,2.2,1s0.8,1.5,0.8,2.6v0.6h-5.7c0,1.1,0.3,1.9,0.8,2.5s1.2,0.9,2.1,0.9c0.5,0,0.8,0,1.2-0.1
			c0.3-0.1,0.8-0.2,1.3-0.4v0.7c-0.4,0.2-0.9,0.3-1.2,0.4S350,148,349.5,148z M349.3,140.4c-0.8,0-1.4,0.3-1.8,0.8
			c-0.5,0.5-0.7,1.2-0.8,2.2h4.9c0-0.9-0.2-1.6-0.6-2.1S350,140.4,349.3,140.4z"/>
		<path class="st11" d="M354.3,147.2c0-0.5,0.2-0.7,0.6-0.7c0.4,0,0.6,0.2,0.6,0.7s-0.2,0.7-0.6,0.7
			C354.5,148,354.3,147.7,354.3,147.2z"/>
		<path class="st11" d="M361.4,148c-1.2,0-2.1-0.5-2.7-1.4h-0.1l0,0.6c0,0.4,0,0.8,0,1.2v3H358v-11.5h0.6l0.1,1.1h0
			c0.5-0.9,1.4-1.3,2.6-1.3c1.1,0,1.9,0.4,2.4,1.1c0.6,0.7,0.8,1.7,0.8,3.1c0,1.3-0.3,2.3-0.9,3S362.4,148,361.4,148z M361.4,147.3
			c0.8,0,1.4-0.3,1.9-0.9c0.4-0.6,0.7-1.4,0.7-2.5c0-2.3-0.8-3.5-2.5-3.5c-0.9,0-1.6,0.3-2,0.8s-0.6,1.3-0.6,2.5v0.2
			c0,1.2,0.2,2.1,0.6,2.6C359.8,147.1,360.5,147.3,361.4,147.3z"/>
		<path class="st11" d="M372.4,147.8v-5.1c0-0.8-0.2-1.4-0.5-1.7s-0.9-0.5-1.6-0.5c-0.9,0-1.6,0.2-2.1,0.7s-0.7,1.3-0.7,2.3v4.4
			h-0.7v-7.9h0.6l0.1,1.1h0c0.5-0.8,1.4-1.2,2.7-1.2c1.8,0,2.7,1,2.7,2.9v5.2L372.4,147.8L372.4,147.8z"/>
		<path class="st11" d="M381.9,139.9v0.5l-1.6,0.1c0.4,0.5,0.7,1.1,0.7,1.8c0,0.8-0.3,1.4-0.8,1.9s-1.2,0.7-2,0.7
			c-0.4,0-0.6,0-0.8,0c-0.3,0.1-0.5,0.3-0.7,0.5c-0.2,0.2-0.2,0.4-0.2,0.6c0,0.3,0.1,0.4,0.3,0.6c0.2,0.1,0.5,0.2,1,0.2h1.4
			c0.9,0,1.5,0.2,2,0.5s0.7,0.9,0.7,1.5c0,0.8-0.3,1.5-1,1.9c-0.7,0.5-1.6,0.7-2.9,0.7c-1,0-1.8-0.2-2.3-0.6
			c-0.5-0.4-0.8-0.9-0.8-1.6c0-0.5,0.2-1,0.5-1.4c0.3-0.4,0.8-0.6,1.4-0.7c-0.2-0.1-0.4-0.2-0.6-0.4s-0.2-0.4-0.2-0.6
			c0-0.5,0.3-1,1-1.4c-0.5-0.2-0.8-0.5-1.1-0.9s-0.4-0.9-0.4-1.4c0-0.8,0.3-1.4,0.8-1.9c0.5-0.5,1.2-0.7,2-0.7
			c0.5,0,0.9,0.1,1.2,0.2H381.9z M375.5,149.1c0,1.1,0.8,1.6,2.4,1.6c2.1,0,3.1-0.7,3.1-2c0-0.5-0.2-0.8-0.5-1
			c-0.3-0.2-0.9-0.3-1.6-0.3h-1.3C376.2,147.4,375.5,148,375.5,149.1z M376.1,142.4c0,0.6,0.2,1.1,0.6,1.4s0.9,0.5,1.5,0.5
			c0.7,0,1.2-0.2,1.5-0.5c0.4-0.3,0.5-0.8,0.5-1.5c0-0.7-0.2-1.2-0.5-1.5c-0.4-0.3-0.9-0.5-1.5-0.5c-0.6,0-1.1,0.2-1.5,0.5
			S376.1,141.7,376.1,142.4z"/>
	</g>
	<g class="st5">
		<path class="st11" d="M317.3,104.5c-1.1,0-2-0.4-2.7-1.1s-1-1.7-1-3c0-1.3,0.3-2.3,0.9-3c0.6-0.8,1.5-1.1,2.5-1.1
			c0.9,0,1.7,0.3,2.2,1s0.8,1.5,0.8,2.6v0.6h-5.7c0,1.1,0.3,1.9,0.8,2.5s1.2,0.9,2.1,0.9c0.5,0,0.8,0,1.2-0.1s0.8-0.2,1.3-0.4v0.7
			c-0.4,0.2-0.9,0.3-1.2,0.4S317.7,104.5,317.3,104.5z M317.1,96.9c-0.8,0-1.4,0.3-1.8,0.8c-0.5,0.5-0.7,1.2-0.8,2.2h4.9
			c0-0.9-0.2-1.6-0.6-2.2S317.8,96.9,317.1,96.9z"/>
		<path class="st11" d="M324.2,100.3l-2.8-3.8h0.8l2.4,3.3l2.3-3.3h0.8l-2.7,3.8l2.9,4.1h-0.8l-2.5-3.5l-2.5,3.5h-0.8L324.2,100.3z"
			/>
		<path class="st11" d="M334.5,104.3l-0.2-1.3h-0.1c-0.4,0.5-0.8,0.9-1.2,1.1c-0.4,0.2-0.9,0.3-1.5,0.3c-0.8,0-1.4-0.2-1.8-0.6
			s-0.6-0.9-0.6-1.7c0-0.8,0.3-1.4,1-1.8c0.6-0.4,1.6-0.7,2.8-0.7l1.5,0v-0.5c0-0.8-0.2-1.3-0.5-1.7c-0.3-0.4-0.8-0.6-1.5-0.6
			c-0.7,0-1.5,0.2-2.3,0.6l-0.3-0.6c0.9-0.4,1.7-0.6,2.6-0.6c0.9,0,1.5,0.2,1.9,0.7s0.6,1.2,0.6,2.1v5.3
			C335,104.3,334.5,104.3,334.5,104.3z M331.6,103.8c0.8,0,1.5-0.2,2-0.7c0.5-0.5,0.7-1.2,0.7-2v-0.8l-1.4,0.1
			c-1.1,0.1-1.9,0.2-2.4,0.5c-0.5,0.3-0.7,0.8-0.7,1.4c0,0.5,0.2,0.9,0.5,1.2C330.6,103.7,331,103.8,331.6,103.8z"/>
		<path class="st11" d="M347.5,104.3v-5.2c0-0.8-0.2-1.3-0.5-1.7c-0.3-0.4-0.8-0.5-1.4-0.5c-0.8,0-1.4,0.2-1.8,0.7
			c-0.4,0.4-0.6,1.1-0.6,2.1v4.6h-0.7v-5.4c0-1.3-0.6-2-1.8-2c-0.8,0-1.4,0.2-1.8,0.7c-0.4,0.5-0.6,1.3-0.6,2.3v4.4h-0.7v-7.9h0.6
			l0.2,1.1h0c0.2-0.4,0.5-0.7,0.9-0.9c0.4-0.2,0.8-0.3,1.3-0.3c1.2,0,2,0.5,2.4,1.4h0c0.3-0.5,0.6-0.8,1-1s0.9-0.4,1.5-0.4
			c0.9,0,1.5,0.2,1.9,0.7s0.6,1.2,0.6,2.2v5.2L347.5,104.3L347.5,104.3z"/>
		<path class="st11" d="M354.1,104.5c-1.2,0-2.1-0.5-2.7-1.4h-0.1l0,0.6c0,0.4,0,0.8,0,1.2v3h-0.7V96.4h0.6l0.1,1.1h0
			c0.5-0.9,1.4-1.3,2.6-1.3c1.1,0,1.9,0.4,2.4,1.1c0.6,0.7,0.8,1.7,0.8,3.1c0,1.3-0.3,2.3-0.9,3S355.2,104.5,354.1,104.5z
			 M354.1,103.8c0.8,0,1.4-0.3,1.9-0.9c0.4-0.6,0.7-1.4,0.7-2.5c0-2.3-0.8-3.5-2.5-3.5c-0.9,0-1.6,0.3-2,0.8s-0.6,1.3-0.6,2.5v0.2
			c0,1.2,0.2,2.1,0.6,2.6S353.2,103.8,354.1,103.8z"/>
		<path class="st11" d="M360.3,104.3h-0.7V93h0.7V104.3z"/>
		<path class="st11" d="M366.2,104.5c-1.1,0-2-0.4-2.7-1.1s-1-1.7-1-3c0-1.3,0.3-2.3,0.9-3c0.6-0.8,1.5-1.1,2.5-1.1
			c0.9,0,1.7,0.3,2.2,1s0.8,1.5,0.8,2.6v0.6h-5.7c0,1.1,0.3,1.9,0.8,2.5s1.2,0.9,2.1,0.9c0.5,0,0.8,0,1.2-0.1s0.8-0.2,1.3-0.4v0.7
			c-0.4,0.2-0.9,0.3-1.2,0.4S366.6,104.5,366.2,104.5z M366,96.9c-0.8,0-1.4,0.3-1.8,0.8c-0.5,0.5-0.7,1.2-0.8,2.2h4.9
			c0-0.9-0.2-1.6-0.6-2.2S366.7,96.9,366,96.9z"/>
		<path class="st11" d="M371,103.8c0-0.5,0.2-0.7,0.6-0.7c0.4,0,0.6,0.2,0.6,0.7s-0.2,0.7-0.6,0.7C371.2,104.5,371,104.2,371,103.8z
			"/>
		<path class="st11" d="M377.9,104.5c-1.1,0-2-0.4-2.7-1.1c-0.6-0.7-1-1.7-1-3c0-1.3,0.3-2.3,1-3.1s1.6-1.1,2.7-1.1
			c0.7,0,1.3,0.1,2,0.4l-0.2,0.6c-0.7-0.2-1.3-0.3-1.8-0.3c-1,0-1.7,0.3-2.2,0.9c-0.5,0.6-0.8,1.5-0.8,2.6c0,1.1,0.2,1.9,0.8,2.5
			c0.5,0.6,1.2,0.9,2.1,0.9c0.7,0,1.4-0.1,2-0.4v0.7C379.4,104.4,378.7,104.5,377.9,104.5z"/>
		<path class="st11" d="M386.7,102.3c0,0.7-0.3,1.3-0.8,1.6s-1.3,0.6-2.3,0.6c-1.1,0-1.9-0.2-2.5-0.5v-0.8c0.8,0.4,1.6,0.6,2.5,0.6
			c0.8,0,1.4-0.1,1.8-0.4s0.6-0.6,0.6-1c0-0.4-0.2-0.7-0.5-1c-0.3-0.3-0.9-0.5-1.6-0.8c-0.8-0.3-1.3-0.5-1.7-0.7
			c-0.3-0.2-0.6-0.4-0.7-0.7c-0.2-0.3-0.2-0.6-0.2-0.9c0-0.6,0.2-1.1,0.7-1.4s1.2-0.5,2.1-0.5c0.9,0,1.7,0.2,2.4,0.5l-0.3,0.7
			c-0.8-0.3-1.5-0.5-2.2-0.5c-0.6,0-1.2,0.1-1.5,0.3s-0.6,0.5-0.6,0.9c0,0.4,0.1,0.7,0.4,1c0.3,0.2,0.9,0.5,1.7,0.8
			c0.7,0.3,1.2,0.5,1.6,0.7s0.6,0.4,0.7,0.7C386.6,101.6,386.7,101.9,386.7,102.3z"/>
		<path class="st11" d="M393.6,102.3c0,0.7-0.3,1.3-0.8,1.6s-1.3,0.6-2.3,0.6c-1.1,0-1.9-0.2-2.5-0.5v-0.8c0.8,0.4,1.6,0.6,2.5,0.6
			c0.8,0,1.4-0.1,1.8-0.4s0.6-0.6,0.6-1c0-0.4-0.2-0.7-0.5-1c-0.3-0.3-0.9-0.5-1.6-0.8c-0.8-0.3-1.3-0.5-1.7-0.7
			c-0.3-0.2-0.6-0.4-0.7-0.7c-0.2-0.3-0.2-0.6-0.2-0.9c0-0.6,0.2-1.1,0.7-1.4s1.2-0.5,2.1-0.5c0.9,0,1.7,0.2,2.4,0.5l-0.3,0.7
			c-0.8-0.3-1.5-0.5-2.2-0.5c-0.6,0-1.2,0.1-1.5,0.3s-0.6,0.5-0.6,0.9c0,0.4,0.1,0.7,0.4,1c0.3,0.2,0.9,0.5,1.7,0.8
			c0.7,0.3,1.2,0.5,1.6,0.7s0.6,0.4,0.7,0.7C393.6,101.6,393.6,101.9,393.6,102.3z"/>
	</g>
	<g class="st5">
		<path class="st11" d="M313,64.8c-0.4,0-0.7-0.1-1-0.2V64c0.3,0.1,0.6,0.1,0.9,0.1c0.7,0,1.1-0.4,1.1-1.3v-9.5h0.7v9.4
			c0,0.7-0.2,1.2-0.5,1.5C314,64.6,313.6,64.8,313,64.8z M314,51.1c0-0.5,0.2-0.7,0.5-0.7c0.1,0,0.3,0.1,0.4,0.2
			c0.1,0.1,0.1,0.3,0.1,0.5c0,0.2,0,0.4-0.1,0.5c-0.1,0.1-0.2,0.2-0.4,0.2C314.1,51.8,314,51.5,314,51.1z"/>
		<path class="st11" d="M320.3,61.3c-1,0-1.8-0.3-2.4-1s-0.9-1.7-0.9-3c0-1.3,0.3-2.4,0.9-3.1s1.4-1.1,2.5-1.1c1.1,0,2,0.4,2.6,1.3
			h0l0.1-1.1h0.6v11.5H323v-3c0-0.6,0-1.2,0-1.8h0C322.4,60.9,321.5,61.3,320.3,61.3z M320.3,60.7c1,0,1.6-0.3,2.1-0.8
			c0.4-0.5,0.6-1.4,0.6-2.7v-0.1c0-1.2-0.2-2-0.6-2.6c-0.4-0.5-1.1-0.8-2-0.8c-0.9,0-1.5,0.3-1.9,0.9s-0.7,1.5-0.7,2.6
			c0,1.1,0.2,1.9,0.7,2.5S319.5,60.7,320.3,60.7z"/>
		<path class="st11" d="M327,53.3v5.1c0,0.8,0.2,1.4,0.5,1.7c0.3,0.4,0.9,0.5,1.6,0.5c0.9,0,1.6-0.2,2.1-0.7s0.7-1.2,0.7-2.3v-4.4
			h0.7v7.9h-0.6l-0.1-1.1h0c-0.5,0.8-1.4,1.2-2.7,1.2c-1.8,0-2.7-1-2.7-2.9v-5.2L327,53.3L327,53.3z"/>
		<path class="st11" d="M338.3,61.3c-1.1,0-2-0.4-2.7-1.1s-1-1.7-1-3c0-1.3,0.3-2.3,0.9-3c0.6-0.8,1.5-1.1,2.5-1.1
			c0.9,0,1.7,0.3,2.2,1s0.8,1.5,0.8,2.6v0.6h-5.7c0,1.1,0.3,1.9,0.8,2.5s1.2,0.9,2.1,0.9c0.5,0,0.8,0,1.2-0.1
			c0.3-0.1,0.8-0.2,1.3-0.4v0.7c-0.4,0.2-0.9,0.3-1.2,0.4S338.8,61.3,338.3,61.3z M338.1,53.8c-0.8,0-1.4,0.3-1.8,0.8
			c-0.5,0.5-0.7,1.2-0.8,2.2h4.9c0-0.9-0.2-1.6-0.6-2.2S338.8,53.8,338.1,53.8z"/>
		<path class="st11" d="M346.4,53.1c0.3,0,0.7,0,1.1,0.1l-0.1,0.7c-0.3-0.1-0.7-0.1-1-0.1c-0.7,0-1.2,0.3-1.7,0.9
			c-0.4,0.6-0.6,1.3-0.6,2.2v4.4h-0.7v-7.9h0.6l0.1,1.4h0.1c0.3-0.6,0.7-1,1-1.2S345.9,53.1,346.4,53.1z"/>
		<path class="st11" d="M347.8,53.3h0.7l1.7,4.4c0.5,1.4,0.8,2.3,1,2.8h0c0.2-0.6,0.5-1.6,1-2.8l1.7-4.4h0.7l-3.5,9.2
			c-0.3,0.7-0.5,1.3-0.7,1.5c-0.2,0.3-0.4,0.5-0.7,0.6c-0.3,0.1-0.6,0.2-0.9,0.2c-0.3,0-0.6-0.1-0.9-0.2V64c0.3,0.1,0.6,0.1,0.9,0.1
			c0.2,0,0.5-0.1,0.7-0.2c0.2-0.1,0.4-0.3,0.5-0.5s0.3-0.6,0.5-1.2c0.2-0.5,0.3-0.9,0.4-1L347.8,53.3z"/>
		<path class="st11" d="M355.8,60.6c0-0.5,0.2-0.7,0.6-0.7c0.4,0,0.6,0.2,0.6,0.7s-0.2,0.7-0.6,0.7C356,61.3,355.8,61.1,355.8,60.6z
			"/>
		<path class="st11" d="M358.4,64.8c-0.4,0-0.7-0.1-1-0.2V64c0.3,0.1,0.6,0.1,0.9,0.1c0.7,0,1.1-0.4,1.1-1.3v-9.5h0.7v9.4
			c0,0.7-0.2,1.2-0.5,1.5C359.4,64.6,359,64.8,358.4,64.8z M359.4,51.1c0-0.5,0.2-0.7,0.5-0.7c0.1,0,0.3,0.1,0.4,0.2
			c0.1,0.1,0.1,0.3,0.1,0.5c0,0.2,0,0.4-0.1,0.5c-0.1,0.1-0.2,0.2-0.4,0.2C359.5,51.8,359.4,51.5,359.4,51.1z"/>
		<path class="st11" d="M367.8,59.1c0,0.7-0.3,1.3-0.8,1.6s-1.3,0.6-2.3,0.6c-1.1,0-1.9-0.2-2.5-0.5v-0.8c0.8,0.4,1.6,0.6,2.5,0.6
			c0.8,0,1.4-0.1,1.8-0.4s0.6-0.6,0.6-1c0-0.4-0.2-0.7-0.5-1c-0.3-0.3-0.9-0.5-1.6-0.8c-0.8-0.3-1.3-0.5-1.7-0.7
			c-0.3-0.2-0.6-0.4-0.7-0.7c-0.2-0.3-0.2-0.6-0.2-0.9c0-0.6,0.2-1.1,0.7-1.4c0.5-0.3,1.2-0.5,2.1-0.5c0.9,0,1.7,0.2,2.4,0.5
			l-0.3,0.7c-0.8-0.3-1.5-0.5-2.2-0.5c-0.6,0-1.2,0.1-1.5,0.3s-0.6,0.5-0.6,0.9c0,0.4,0.1,0.7,0.4,1c0.3,0.2,0.9,0.5,1.7,0.8
			c0.7,0.3,1.2,0.5,1.6,0.7s0.6,0.4,0.7,0.7C367.7,58.5,367.8,58.8,367.8,59.1z"/>
	</g>
	<g>
		<path class="st11" d="M297.4,69.4H277c-0.4,0-0.7-0.3-0.7-0.7V45.2c0-0.4,0.3-0.7,0.7-0.7h20.4c0.4,0,0.7,0.3,0.7,0.7v23.5
			C298.1,69.1,297.8,69.4,297.4,69.4z"/>
		<path class="st14" d="M299.5,67.4H279c-0.4,0-0.7-0.3-0.7-0.7V43c0-0.4,0.3-0.7,0.7-0.7h20.4c0.4,0,0.7,0.3,0.7,0.7v23.7
			C300.2,67.1,299.8,67.4,299.5,67.4z"/>
		<g>
			<line class="st15" x1="282.4" y1="62.7" x2="290.2" y2="62.7"/>
			<line class="st15" x1="282.4" y1="55.7" x2="295.2" y2="55.7"/>
			<line class="st15" x1="282.4" y1="59.2" x2="295.2" y2="59.2"/>
			<line class="st15" x1="282.4" y1="48.8" x2="292.9" y2="48.8"/>
			<line class="st15" x1="282.4" y1="52.3" x2="295.2" y2="52.3"/>
		</g>
	</g>
	<g>
		<path class="st11" d="M297.4,112.5H277c-0.4,0-0.7-0.3-0.7-0.7V88.3c0-0.4,0.3-0.7,0.7-0.7h20.4c0.4,0,0.7,0.3,0.7,0.7v23.5
			C298.1,112.2,297.8,112.5,297.4,112.5z"/>
		<path class="st14" d="M299.5,110.6H279c-0.4,0-0.7-0.3-0.7-0.7V86.1c0-0.4,0.3-0.7,0.7-0.7h20.4c0.4,0,0.7,0.3,0.7,0.7v23.7
			C300.2,110.3,299.8,110.6,299.5,110.6z"/>
		<g>
			<line class="st15" x1="282.4" y1="105.9" x2="290.2" y2="105.9"/>
			<line class="st15" x1="282.4" y1="98.9" x2="295.2" y2="98.9"/>
			<line class="st15" x1="282.4" y1="102.4" x2="295.2" y2="102.4"/>
			<line class="st15" x1="282.4" y1="92" x2="292.9" y2="92"/>
			<line class="st15" x1="282.4" y1="95.4" x2="295.2" y2="95.4"/>
		</g>
	</g>
	<g>
		<path class="st11" d="M303.8,154.4h-31.7c-0.4,0-0.7-0.3-0.7-0.7v-23.1c0-0.4,0.3-0.7,0.7-0.7h31.7c0.4,0,0.7,0.3,0.7,0.7v23.1
			C304.5,154.1,304.1,154.4,303.8,154.4z"/>
		<polygon class="st12" points="273,143.2 278.5,147 287.7,139.3 291.8,142.3 295.6,138.8 302.8,144.6 302.8,152.9 273.1,152.9 		
			"/>
		<circle class="st12" cx="280.1" cy="137.9" r="2.4"/>
	</g>
</g>
<polygon class="st4" points="431.7,142.7 431.8,150.9 424.6,146.9 417.5,142.8 424.6,138.7 431.6,134.5 "/>
<polygon class="st4" points="550.3,142.8 550.2,134.7 557.3,138.7 564.4,142.7 557.4,146.9 550.3,151 "/>
<line class="st3" x1="554.9" y1="99.1" x2="426" y2="99.1"/>
<polygon class="st4" points="431.7,99 431.8,107.1 424.6,103.1 417.5,99.1 424.6,94.9 431.6,90.8 "/>
<polygon class="st4" points="550.3,99.1 550.2,90.9 557.3,94.9 564.4,99 557.4,103.1 550.3,107.3 "/>
<line class="st3" x1="554.9" y1="56.2" x2="426" y2="56.2"/>
<polygon class="st4" points="431.7,56.1 431.8,64.3 424.6,60.3 417.5,56.2 424.6,52.1 431.6,47.9 "/>
<polygon class="st4" points="550.3,56.2 550.2,48 557.3,52.1 564.4,56.1 557.4,60.3 550.3,64.4 "/>
<line class="st3" x1="209.2" y1="351.5" x2="108.1" y2="351.5"/>
<polygon class="st4" points="113.8,351.4 113.8,359.6 106.7,355.5 99.6,351.5 106.6,347.3 113.7,343.2 "/>
<polygon class="st4" points="207.5,351.5 207.4,343.3 214.6,347.3 221.7,351.4 214.6,355.5 207.6,359.7 "/>
<line class="st3" x1="870.6" y1="351.5" x2="769.4" y2="351.5"/>
<polygon class="st4" points="775.1,351.4 775.2,359.6 768,355.5 760.9,351.5 768,347.3 775,343.2 "/>
<polygon class="st4" points="868.8,351.5 868.8,343.3 875.9,347.3 883,351.4 876,355.5 868.9,359.7 "/>
<g class="st5">
	<path class="st6" d="M23.1,408.9h-1.9v-5.1H16v5.1h-1.9v-11.4H16v4.7h5.3v-4.7h1.9V408.9z"/>
	<path class="st6" d="M30.1,408.9h-1.9V399h-3.4v-1.6h8.6v1.6h-3.4L30.1,408.9L30.1,408.9z"/>
	<path class="st6" d="M39.2,408.9h-1.9V399h-3.4v-1.6h8.6v1.6h-3.4L39.2,408.9L39.2,408.9z"/>
	<path class="st6" d="M51.8,400.9c0,1.2-0.4,2.1-1.2,2.7s-1.9,1-3.3,1h-1.2v4.3h-1.9v-11.4h3.3c1.4,0,2.5,0.3,3.2,0.9
		S51.8,399.8,51.8,400.9z M46.1,403h1c1,0,1.7-0.2,2.1-0.5s0.7-0.9,0.7-1.6c0-0.7-0.2-1.1-0.6-1.5s-1-0.5-1.9-0.5h-1.3L46.1,403
		L46.1,403z"/>
	<path class="st6" d="M58.7,397.4l-4.2,11.4h-1.7l4.3-11.4H58.7z"/>
	<path class="st6" d="M67.3,408.9h-7.7v-1.4l2.9-3c0.9-0.9,1.4-1.5,1.7-1.9c0.3-0.4,0.5-0.7,0.6-1.1c0.1-0.3,0.2-0.7,0.2-1.1
		c0-0.5-0.2-0.9-0.5-1.2s-0.7-0.4-1.3-0.4c-0.4,0-0.9,0.1-1.3,0.2s-0.9,0.5-1.4,0.9l-1-1.2c0.6-0.5,1.3-0.9,1.9-1.1
		c0.6-0.2,1.2-0.3,1.9-0.3c1.1,0,1.9,0.3,2.6,0.8s1,1.3,1,2.2c0,0.5-0.1,1-0.3,1.5c-0.2,0.5-0.5,0.9-0.9,1.4s-1,1.2-1.9,2l-2,1.9
		v0.1h5.4C67.3,407.2,67.3,408.9,67.3,408.9z"/>
</g>
<g class="st5">
	<path class="st6" d="M935.4,393.8c0,0.8-0.3,1.3-0.9,1.8s-1.4,0.6-2.5,0.6c-1.1,0-2-0.2-2.7-0.5v-0.8c0.9,0.4,1.8,0.6,2.7,0.6
		c0.8,0,1.5-0.1,1.9-0.4c0.4-0.3,0.7-0.6,0.7-1.1c0-0.4-0.2-0.8-0.5-1.1c-0.3-0.3-0.9-0.6-1.7-0.9c-0.8-0.3-1.4-0.6-1.8-0.8
		s-0.6-0.5-0.8-0.8c-0.2-0.3-0.3-0.6-0.3-1c0-0.6,0.3-1.1,0.8-1.5c0.5-0.4,1.3-0.6,2.2-0.6c0.9,0,1.8,0.2,2.6,0.5l-0.3,0.7
		c-0.8-0.3-1.6-0.5-2.3-0.5c-0.7,0-1.2,0.1-1.6,0.3s-0.6,0.5-0.6,1c0,0.4,0.2,0.8,0.5,1.1c0.3,0.3,0.9,0.6,1.8,0.9
		c0.8,0.3,1.3,0.5,1.7,0.7c0.3,0.2,0.6,0.5,0.8,0.8C935.3,393.1,935.4,393.4,935.4,393.8z"/>
	<path class="st6" d="M941,396.2c-1.2,0-2.2-0.4-2.9-1.1s-1-1.8-1-3.2c0-1.4,0.3-2.4,1-3.3c0.7-0.8,1.6-1.2,2.7-1.2
		c1,0,1.8,0.3,2.4,1s0.9,1.6,0.9,2.8v0.6h-6.1c0,1.2,0.3,2.1,0.8,2.7c0.5,0.6,1.3,0.9,2.3,0.9c0.5,0,0.9,0,1.3-0.1s0.8-0.2,1.4-0.4
		v0.7c-0.5,0.2-0.9,0.4-1.3,0.4S941.5,396.2,941,396.2z M940.8,388c-0.8,0-1.5,0.3-2,0.8c-0.5,0.5-0.8,1.3-0.9,2.3h5.2
		c0-1-0.2-1.8-0.6-2.3C942.1,388.3,941.5,388,940.8,388z"/>
	<path class="st6" d="M949.7,387.3c0.4,0,0.7,0,1.2,0.1l-0.1,0.7c-0.4-0.1-0.7-0.1-1.1-0.1c-0.7,0-1.3,0.3-1.8,0.9
		c-0.5,0.6-0.7,1.4-0.7,2.3v4.7h-0.8v-8.5h0.7l0.1,1.5h0.1c0.3-0.6,0.7-1.1,1.1-1.3C948.6,387.5,949.1,387.3,949.7,387.3z"/>
	<path class="st6" d="M954.4,396l-3.3-8.5h0.8l2.2,5.8c0.3,0.7,0.5,1.4,0.7,1.9h0c0.2-0.7,0.4-1.4,0.7-2l2.2-5.8h0.8l-3.3,8.5H954.4
		z"/>
	<path class="st6" d="M963.3,396.2c-1.2,0-2.2-0.4-2.9-1.1s-1-1.8-1-3.2c0-1.4,0.3-2.4,1-3.3c0.7-0.8,1.6-1.2,2.7-1.2
		c1,0,1.8,0.3,2.4,1s0.9,1.6,0.9,2.8v0.6h-6.1c0,1.2,0.3,2.1,0.8,2.7c0.5,0.6,1.3,0.9,2.3,0.9c0.5,0,0.9,0,1.3-0.1s0.8-0.2,1.4-0.4
		v0.7c-0.5,0.2-0.9,0.4-1.3,0.4S963.8,396.2,963.3,396.2z M963.1,388c-0.8,0-1.5,0.3-2,0.8c-0.5,0.5-0.8,1.3-0.9,2.3h5.2
		c0-1-0.2-1.8-0.6-2.3C964.5,388.3,963.9,388,963.1,388z"/>
	<path class="st6" d="M972,387.3c0.4,0,0.7,0,1.2,0.1l-0.1,0.7c-0.4-0.1-0.7-0.1-1.1-0.1c-0.7,0-1.3,0.3-1.8,0.9
		c-0.5,0.6-0.7,1.4-0.7,2.3v4.7h-0.8v-8.5h0.7l0.1,1.5h0.1c0.3-0.6,0.7-1.1,1.1-1.3C971,387.5,971.5,387.3,972,387.3z"/>
</g>
<g class="st5">
	<path class="st7" d="M433,266.7h-1.8v-7.4c0-0.9,0-1.6,0.1-2.1c-0.1,0.1-0.3,0.3-0.4,0.4c-0.2,0.2-0.8,0.6-1.8,1.4l-0.9-1.2
		l3.4-2.6h1.5L433,266.7L433,266.7z"/>
	<path class="st7" d="M445.6,266.7h-1.9v-9.8h-3.4v-1.6h8.6v1.6h-3.4L445.6,266.7L445.6,266.7z"/>
	<path class="st7" d="M455.6,256.7c-1.1,0-1.9,0.4-2.5,1.1c-0.6,0.8-0.9,1.8-0.9,3.1c0,1.4,0.3,2.5,0.9,3.2c0.6,0.7,1.4,1.1,2.6,1.1
		c0.5,0,1,0,1.4-0.1s0.9-0.2,1.4-0.4v1.6c-0.9,0.3-1.9,0.5-3,0.5c-1.7,0-3-0.5-3.9-1.5s-1.3-2.5-1.3-4.3c0-1.2,0.2-2.2,0.7-3.1
		c0.4-0.9,1.1-1.6,1.9-2c0.8-0.5,1.8-0.7,2.9-0.7c1.2,0,2.2,0.2,3.2,0.7l-0.7,1.6c-0.4-0.2-0.8-0.3-1.2-0.5S456.1,256.7,455.6,256.7
		z"/>
	<path class="st7" d="M468.4,258.8c0,1.2-0.4,2.1-1.2,2.7s-1.9,1-3.3,1h-1.2v4.3h-1.9v-11.4h3.3c1.4,0,2.5,0.3,3.2,0.9
		C468.1,256.8,468.4,257.6,468.4,258.8z M462.8,260.9h1c1,0,1.7-0.2,2.1-0.5s0.7-0.9,0.7-1.6c0-0.7-0.2-1.1-0.6-1.5s-1-0.5-1.9-0.5
		h-1.3L462.8,260.9L462.8,260.9z"/>
	<path class="st7" d="M479.7,256.7c-1.1,0-1.9,0.4-2.5,1.1c-0.6,0.8-0.9,1.8-0.9,3.1c0,1.4,0.3,2.5,0.9,3.2c0.6,0.7,1.4,1.1,2.6,1.1
		c0.5,0,1,0,1.4-0.1s0.9-0.2,1.4-0.4v1.6c-0.9,0.3-1.9,0.5-3,0.5c-1.7,0-3-0.5-3.9-1.5s-1.3-2.5-1.3-4.3c0-1.2,0.2-2.2,0.7-3.1
		c0.4-0.9,1.1-1.6,1.9-2c0.8-0.5,1.8-0.7,2.9-0.7c1.2,0,2.2,0.2,3.2,0.7l-0.7,1.6c-0.4-0.2-0.8-0.3-1.2-0.5S480.2,256.7,479.7,256.7
		z"/>
	<path class="st7" d="M492.5,262.4c0,1.4-0.4,2.5-1.1,3.3s-1.7,1.2-3,1.2c-0.8,0-1.5-0.2-2.1-0.5c-0.6-0.4-1.1-0.9-1.4-1.6
		c-0.3-0.7-0.5-1.5-0.5-2.4c0-1.4,0.4-2.5,1.1-3.3s1.7-1.2,3-1.2c1.2,0,2.2,0.4,3,1.2C492.1,259.9,492.5,261,492.5,262.4z
		 M486.2,262.4c0,2,0.7,3,2.2,3c1.5,0,2.2-1,2.2-3c0-2-0.7-3-2.2-3c-0.8,0-1.3,0.3-1.7,0.8C486.4,260.7,486.2,261.4,486.2,262.4z"/>
	<path class="st7" d="M502.2,266.7h-1.8v-5.3c0-0.7-0.1-1.2-0.4-1.5c-0.3-0.3-0.7-0.5-1.3-0.5c-0.8,0-1.3,0.2-1.7,0.7
		s-0.5,1.2-0.5,2.3v4.3h-1.8v-8.6h1.4l0.3,1.1h0.1c0.3-0.4,0.6-0.7,1.1-1s1-0.3,1.6-0.3c2.1,0,3.1,1.1,3.1,3.2L502.2,266.7
		L502.2,266.7z"/>
	<path class="st7" d="M512.4,266.7h-1.8v-5.3c0-0.7-0.1-1.2-0.4-1.5c-0.3-0.3-0.7-0.5-1.3-0.5c-0.8,0-1.3,0.2-1.7,0.7
		s-0.5,1.2-0.5,2.3v4.3h-1.8v-8.6h1.4l0.3,1.1h0.1c0.3-0.4,0.6-0.7,1.1-1s1-0.3,1.6-0.3c2.1,0,3.1,1.1,3.1,3.2L512.4,266.7
		L512.4,266.7z"/>
	<path class="st7" d="M518.7,266.9c-1.3,0-2.4-0.4-3.2-1.2s-1.1-1.9-1.1-3.2c0-1.4,0.4-2.5,1.1-3.3s1.7-1.2,2.9-1.2
		c1.1,0,2,0.3,2.7,1c0.7,0.7,1,1.6,1,2.9v1h-5.8c0,0.8,0.3,1.5,0.7,1.9c0.4,0.5,1,0.7,1.8,0.7c0.5,0,1,0,1.4-0.1
		c0.4-0.1,0.9-0.3,1.4-0.5v1.5c-0.4,0.2-0.9,0.4-1.4,0.5C519.8,266.8,519.3,266.9,518.7,266.9z M518.4,259.3c-0.6,0-1.1,0.2-1.4,0.6
		s-0.6,0.9-0.6,1.6h3.9c0-0.7-0.2-1.3-0.5-1.6C519.4,259.5,518.9,259.3,518.4,259.3z"/>
	<path class="st7" d="M527.6,266.9c-1.3,0-2.3-0.4-3-1.1s-1-1.9-1-3.3c0-1.5,0.4-2.6,1.1-3.4s1.7-1.2,3.1-1.2c0.9,0,1.7,0.2,2.5,0.5
		l-0.6,1.5c-0.8-0.3-1.4-0.5-1.9-0.5c-1.5,0-2.2,1-2.2,3c0,1,0.2,1.7,0.6,2.2c0.4,0.5,0.9,0.7,1.6,0.7c0.8,0,1.6-0.2,2.3-0.6v1.6
		c-0.3,0.2-0.7,0.3-1.1,0.4C528.6,266.8,528.1,266.9,527.6,266.9z"/>
	<path class="st7" d="M535.3,265.4c0.4,0,0.9-0.1,1.3-0.2v1.4c-0.2,0.1-0.5,0.2-0.8,0.2s-0.7,0.1-1,0.1c-1.7,0-2.6-0.9-2.6-2.8v-4.7
		H531v-0.8l1.3-0.7l0.6-1.8h1.1v1.9h2.5v1.4h-2.5v4.6c0,0.4,0.1,0.8,0.3,1C534.6,265.3,534.9,265.4,535.3,265.4z"/>
	<path class="st7" d="M538.2,255.8c0-0.3,0.1-0.6,0.3-0.8s0.4-0.3,0.8-0.3c0.3,0,0.6,0.1,0.8,0.3s0.3,0.4,0.3,0.8
		c0,0.3-0.1,0.6-0.3,0.7s-0.4,0.3-0.8,0.3c-0.3,0-0.6-0.1-0.8-0.3S538.2,256.1,538.2,255.8z M540.2,266.7h-1.8v-8.6h1.8V266.7z"/>
	<path class="st7" d="M550.5,262.4c0,1.4-0.4,2.5-1.1,3.3c-0.7,0.8-1.7,1.2-3,1.2c-0.8,0-1.5-0.2-2.1-0.5c-0.6-0.4-1.1-0.9-1.4-1.6
		c-0.3-0.7-0.5-1.5-0.5-2.4c0-1.4,0.4-2.5,1.1-3.3s1.7-1.2,3-1.2c1.2,0,2.2,0.4,3,1.2C550.1,259.9,550.5,261,550.5,262.4z
		 M544.2,262.4c0,2,0.7,3,2.2,3c1.5,0,2.2-1,2.2-3c0-2-0.7-3-2.2-3c-0.8,0-1.3,0.3-1.7,0.8C544.4,260.7,544.2,261.4,544.2,262.4z"/>
	<path class="st7" d="M560.2,266.7h-1.8v-5.3c0-0.7-0.1-1.2-0.4-1.5c-0.3-0.3-0.7-0.5-1.3-0.5c-0.8,0-1.3,0.2-1.7,0.7
		s-0.5,1.2-0.5,2.3v4.3h-1.8v-8.6h1.4l0.3,1.1h0.1c0.3-0.4,0.6-0.7,1.1-1s1-0.3,1.6-0.3c2.1,0,3.1,1.1,3.1,3.2L560.2,266.7
		L560.2,266.7L560.2,266.7z"/>
</g>
<g>
	<path class="st8" d="M996.4,365.5H902c-0.7,0-1.3-0.6-1.3-1.3v-29.6c0-0.7,0.6-1.3,1.3-1.3h94.3c0.7,0,1.3,0.6,1.3,1.3v29.6
		C997.7,364.9,997.1,365.5,996.4,365.5z"/>
	<g>
		<line class="st9" x1="942.3" y1="343.7" x2="942.3" y2="354.9"/>
		<line class="st9" x1="949.3" y1="343.7" x2="949.3" y2="354.9"/>
		<line class="st9" x1="956.2" y1="343.7" x2="956.2" y2="354.9"/>
		<line class="st9" x1="963.2" y1="343.7" x2="963.2" y2="354.9"/>
		<line class="st9" x1="914.4" y1="343.7" x2="914.4" y2="354.9"/>
		<line class="st9" x1="921.4" y1="343.7" x2="921.4" y2="354.9"/>
		<line class="st9" x1="928.4" y1="343.7" x2="928.4" y2="354.9"/>
		<line class="st9" x1="935.3" y1="343.7" x2="935.3" y2="354.9"/>
		<line class="st9" x1="970.2" y1="343.7" x2="970.2" y2="354.9"/>
		<line class="st9" x1="977.2" y1="343.7" x2="977.2" y2="354.9"/>
		<line class="st9" x1="984.1" y1="343.7" x2="984.1" y2="354.9"/>
	</g>
	<line class="st10" x1="914.2" y1="371.2" x2="984.1" y2="371.2"/>
</g>
<g>
	<path class="st8" d="M77.4,381.1H3.9c-0.7,0-1.3-0.6-1.3-1.3v-58.5c0-0.7,0.6-1.3,1.3-1.3h73.5c0.7,0,1.3,0.6,1.3,1.3v58.5
		C78.7,380.5,78.1,381.1,77.4,381.1z"/>
	<rect x="3" y="320.4" class="st11" width="75.6" height="15.4"/>
	<circle class="st12" cx="13.3" cy="328.1" r="2.5"/>
	<circle class="st12" cx="20.7" cy="328.1" r="2.5"/>
	<circle class="st12" cx="28.1" cy="328.1" r="2.5"/>
	<g>
		<line class="st13" x1="16.6" y1="363.9" x2="36.4" y2="363.9"/>
		<line class="st13" x1="16.6" y1="346.2" x2="49" y2="346.2"/>
		<line class="st13" x1="16.6" y1="355.1" x2="49" y2="355.1"/>
	</g>
</g>
<g class="st5">
	<path class="st11" d="M628,391.1c0-0.5,0.2-0.7,0.5-0.7c0.2,0,0.3,0.1,0.4,0.2c0.1,0.1,0.1,0.3,0.1,0.5c0,0.2,0,0.4-0.1,0.5
		c-0.1,0.1-0.2,0.2-0.4,0.2C628.1,391.8,628,391.5,628,391.1z M628.8,401.2h-0.7v-7.9h0.7V401.2z"/>
	<path class="st11" d="M641.3,401.2V396c0-0.8-0.2-1.3-0.5-1.7s-0.8-0.5-1.4-0.5c-0.8,0-1.4,0.2-1.8,0.7c-0.4,0.4-0.6,1.1-0.6,2.1
		v4.6h-0.7v-5.4c0-1.3-0.6-2-1.8-2c-0.8,0-1.4,0.2-1.8,0.7c-0.4,0.5-0.6,1.3-0.6,2.3v4.4h-0.7v-7.9h0.6l0.2,1.1h0
		c0.2-0.4,0.5-0.7,0.9-0.9s0.8-0.3,1.3-0.3c1.2,0,2,0.5,2.4,1.4h0c0.3-0.5,0.6-0.8,1-1s0.9-0.4,1.5-0.4c0.9,0,1.5,0.2,1.9,0.7
		s0.6,1.2,0.6,2.2v5.2L641.3,401.2L641.3,401.2L641.3,401.2z"/>
	<path class="st11" d="M649.4,401.2l-0.2-1.3h-0.1c-0.4,0.5-0.8,0.9-1.2,1.1s-0.9,0.3-1.5,0.3c-0.8,0-1.4-0.2-1.8-0.6
		s-0.6-0.9-0.6-1.7c0-0.8,0.3-1.4,1-1.8c0.6-0.4,1.6-0.7,2.8-0.7l1.5,0V396c0-0.8-0.2-1.3-0.5-1.7c-0.3-0.4-0.8-0.6-1.5-0.6
		c-0.7,0-1.5,0.2-2.3,0.6l-0.3-0.6c0.9-0.4,1.7-0.6,2.6-0.6c0.9,0,1.5,0.2,1.9,0.7s0.6,1.2,0.6,2.1v5.3L649.4,401.2L649.4,401.2z
		 M646.5,400.7c0.8,0,1.5-0.2,2-0.7c0.5-0.5,0.7-1.2,0.7-2v-0.8l-1.4,0.1c-1.1,0.1-1.9,0.2-2.4,0.5c-0.5,0.3-0.7,0.8-0.7,1.4
		c0,0.5,0.2,0.9,0.5,1.2C645.5,400.5,645.9,400.7,646.5,400.7z"/>
	<path class="st11" d="M658.6,393.3v0.5l-1.6,0.1c0.4,0.5,0.7,1.1,0.7,1.8c0,0.8-0.3,1.4-0.8,1.9c-0.5,0.5-1.2,0.7-2,0.7
		c-0.4,0-0.6,0-0.8,0c-0.3,0.1-0.5,0.3-0.7,0.5c-0.2,0.2-0.2,0.4-0.2,0.6c0,0.3,0.1,0.4,0.3,0.6c0.2,0.1,0.5,0.2,1,0.2h1.4
		c0.9,0,1.5,0.2,2,0.5s0.7,0.9,0.7,1.5c0,0.8-0.3,1.5-1,1.9c-0.7,0.5-1.6,0.7-2.9,0.7c-1,0-1.8-0.2-2.3-0.6
		c-0.5-0.4-0.8-0.9-0.8-1.6c0-0.5,0.2-1,0.5-1.4c0.3-0.4,0.8-0.6,1.4-0.7c-0.2-0.1-0.4-0.2-0.6-0.4s-0.2-0.4-0.2-0.6
		c0-0.5,0.3-1,1-1.4c-0.5-0.2-0.8-0.5-1.1-0.9s-0.4-0.9-0.4-1.4c0-0.8,0.3-1.4,0.8-1.9c0.5-0.5,1.2-0.7,2-0.7c0.5,0,0.9,0.1,1.2,0.2
		L658.6,393.3L658.6,393.3z M652.2,402.5c0,1.1,0.8,1.6,2.4,1.6c2.1,0,3.1-0.7,3.1-2c0-0.5-0.2-0.8-0.5-1c-0.3-0.2-0.9-0.3-1.6-0.3
		h-1.3C653,400.8,652.2,401.4,652.2,402.5z M652.8,395.7c0,0.6,0.2,1.1,0.6,1.4s0.9,0.5,1.5,0.5c0.7,0,1.2-0.2,1.5-0.5
		c0.4-0.3,0.5-0.8,0.5-1.5c0-0.7-0.2-1.2-0.5-1.5c-0.4-0.3-0.9-0.5-1.5-0.5c-0.6,0-1.1,0.2-1.5,0.5S652.8,395.1,652.8,395.7z"/>
	<path class="st11" d="M663.5,401.3c-1.1,0-2-0.4-2.7-1.1s-1-1.7-1-3c0-1.3,0.3-2.3,0.9-3c0.6-0.8,1.5-1.1,2.5-1.1
		c0.9,0,1.7,0.3,2.2,1c0.5,0.6,0.8,1.5,0.8,2.6v0.6h-5.7c0,1.1,0.3,1.9,0.8,2.5c0.5,0.6,1.2,0.9,2.1,0.9c0.5,0,0.8,0,1.2-0.1
		s0.8-0.2,1.3-0.4v0.7c-0.4,0.2-0.9,0.3-1.2,0.4C664.3,401.3,663.9,401.3,663.5,401.3z M663.3,393.7c-0.8,0-1.4,0.3-1.8,0.8
		c-0.5,0.5-0.7,1.2-0.8,2.2h4.9c0-0.9-0.2-1.6-0.6-2.1S664,393.7,663.3,393.7z"/>
	<path class="st11" d="M668.3,400.6c0-0.5,0.2-0.7,0.6-0.7c0.4,0,0.6,0.2,0.6,0.7s-0.2,0.7-0.6,0.7
		C668.5,401.3,668.3,401.1,668.3,400.6z"/>
	<path class="st11" d="M675.4,401.3c-1.2,0-2.1-0.5-2.7-1.4h-0.1l0,0.6c0,0.4,0,0.8,0,1.2v3H672v-11.5h0.6l0.1,1.1h0
		c0.5-0.9,1.4-1.3,2.6-1.3c1.1,0,1.9,0.4,2.4,1.1s0.8,1.7,0.8,3.1c0,1.3-0.3,2.3-0.9,3C677.2,401,676.4,401.3,675.4,401.3z
		 M675.4,400.7c0.8,0,1.4-0.3,1.9-0.9c0.4-0.6,0.7-1.4,0.7-2.5c0-2.3-0.8-3.5-2.5-3.5c-0.9,0-1.6,0.3-2,0.8s-0.6,1.3-0.6,2.5v0.2
		c0,1.2,0.2,2.1,0.6,2.6C673.8,400.4,674.4,400.7,675.4,400.7z"/>
	<path class="st11" d="M686.4,401.2V396c0-0.8-0.2-1.4-0.5-1.7s-0.9-0.5-1.6-0.5c-0.9,0-1.6,0.2-2.1,0.7s-0.7,1.3-0.7,2.3v4.4h-0.7
		v-7.9h0.6l0.1,1.1h0c0.5-0.8,1.4-1.2,2.7-1.2c1.8,0,2.7,1,2.7,2.9v5.2L686.4,401.2L686.4,401.2z"/>
	<path class="st11" d="M695.8,393.3v0.5l-1.6,0.1c0.4,0.5,0.7,1.1,0.7,1.8c0,0.8-0.3,1.4-0.8,1.9s-1.2,0.7-2,0.7c-0.4,0-0.6,0-0.8,0
		c-0.3,0.1-0.5,0.3-0.7,0.5c-0.2,0.2-0.2,0.4-0.2,0.6c0,0.3,0.1,0.4,0.3,0.6c0.2,0.1,0.5,0.2,1,0.2h1.4c0.9,0,1.5,0.2,2,0.5
		s0.7,0.9,0.7,1.5c0,0.8-0.3,1.5-1,1.9c-0.7,0.5-1.6,0.7-2.9,0.7c-1,0-1.8-0.2-2.3-0.6c-0.5-0.4-0.8-0.9-0.8-1.6
		c0-0.5,0.2-1,0.5-1.4c0.3-0.4,0.8-0.6,1.4-0.7c-0.2-0.1-0.4-0.2-0.6-0.4c-0.1-0.2-0.2-0.4-0.2-0.6c0-0.5,0.3-1,1-1.4
		c-0.5-0.2-0.8-0.5-1.1-0.9c-0.3-0.4-0.4-0.9-0.4-1.4c0-0.8,0.3-1.4,0.8-1.9c0.5-0.5,1.2-0.7,2-0.7c0.5,0,0.9,0.1,1.2,0.2
		L695.8,393.3L695.8,393.3z M689.4,402.5c0,1.1,0.8,1.6,2.4,1.6c2.1,0,3.1-0.7,3.1-2c0-0.5-0.2-0.8-0.5-1c-0.3-0.2-0.9-0.3-1.6-0.3
		h-1.3C690.1,400.8,689.4,401.4,689.4,402.5z M690,395.7c0,0.6,0.2,1.1,0.6,1.4s0.9,0.5,1.5,0.5c0.7,0,1.2-0.2,1.5-0.5
		c0.4-0.3,0.5-0.8,0.5-1.5c0-0.7-0.2-1.2-0.5-1.5c-0.4-0.3-0.9-0.5-1.5-0.5c-0.6,0-1.1,0.2-1.5,0.5S690,395.1,690,395.7z"/>
</g>
<g class="st5">
	<path class="st11" d="M631.2,357.8c-1.2,0-2-0.4-2.7-1.1s-1-1.7-1-3c0-1.3,0.3-2.3,0.9-3c0.6-0.8,1.5-1.1,2.5-1.1
		c0.9,0,1.7,0.3,2.2,1c0.5,0.6,0.8,1.5,0.8,2.6v0.6h-5.7c0,1.1,0.3,1.9,0.8,2.5c0.5,0.6,1.2,0.9,2.1,0.9c0.5,0,0.8,0,1.2-0.1
		c0.3-0.1,0.8-0.2,1.3-0.4v0.7c-0.4,0.2-0.9,0.3-1.2,0.4C632.1,357.8,631.7,357.8,631.2,357.8z M631,350.3c-0.8,0-1.4,0.3-1.8,0.8
		c-0.5,0.5-0.7,1.2-0.8,2.2h4.9c0-0.9-0.2-1.6-0.6-2.1S631.7,350.3,631,350.3z"/>
	<path class="st11" d="M638.2,353.6l-2.8-3.8h0.8l2.4,3.3l2.3-3.3h0.8l-2.7,3.8l2.9,4.1h-0.8l-2.5-3.5l-2.5,3.5h-0.8L638.2,353.6z"
		/>
	<path class="st11" d="M648.5,357.7l-0.2-1.3h-0.1c-0.4,0.5-0.8,0.9-1.2,1.1c-0.4,0.2-0.9,0.3-1.5,0.3c-0.8,0-1.4-0.2-1.8-0.6
		s-0.6-0.9-0.6-1.7c0-0.8,0.3-1.4,1-1.8s1.6-0.7,2.8-0.7l1.5,0v-0.5c0-0.8-0.2-1.3-0.5-1.7c-0.3-0.4-0.8-0.6-1.5-0.6
		c-0.7,0-1.5,0.2-2.3,0.6l-0.3-0.6c0.9-0.4,1.7-0.6,2.6-0.6c0.9,0,1.5,0.2,1.9,0.7s0.6,1.2,0.6,2.1v5.3L648.5,357.7L648.5,357.7z
		 M645.5,357.2c0.8,0,1.5-0.2,2-0.7c0.5-0.5,0.7-1.2,0.7-2v-0.8l-1.4,0.1c-1.1,0.1-1.9,0.2-2.4,0.5c-0.5,0.3-0.7,0.8-0.7,1.4
		c0,0.5,0.2,0.9,0.5,1.2C644.6,357.1,645,357.2,645.5,357.2z"/>
	<path class="st11" d="M661.4,357.7v-5.2c0-0.8-0.2-1.3-0.5-1.7s-0.8-0.5-1.4-0.5c-0.8,0-1.4,0.2-1.8,0.7c-0.4,0.4-0.6,1.1-0.6,2.1
		v4.6h-0.7v-5.4c0-1.3-0.6-2-1.8-2c-0.8,0-1.4,0.2-1.8,0.7c-0.4,0.5-0.6,1.3-0.6,2.3v4.4h-0.7v-7.9h0.6l0.2,1.1h0
		c0.2-0.4,0.5-0.7,0.9-0.9s0.8-0.3,1.3-0.3c1.2,0,2,0.5,2.4,1.4h0c0.3-0.5,0.6-0.8,1-1s0.9-0.4,1.5-0.4c0.9,0,1.5,0.2,1.9,0.7
		s0.6,1.2,0.6,2.2v5.2L661.4,357.7L661.4,357.7L661.4,357.7z"/>
	<path class="st11" d="M668.1,357.8c-1.2,0-2.1-0.5-2.7-1.4h-0.1l0,0.6c0,0.4,0,0.8,0,1.2v3h-0.7v-11.5h0.6l0.1,1.1h0
		c0.5-0.9,1.4-1.3,2.6-1.3c1.1,0,1.9,0.4,2.4,1.1s0.8,1.7,0.8,3.1c0,1.3-0.3,2.3-0.9,3S669.1,357.8,668.1,357.8z M668.1,357.2
		c0.8,0,1.4-0.3,1.9-0.9s0.7-1.4,0.7-2.5c0-2.3-0.8-3.5-2.5-3.5c-0.9,0-1.6,0.3-2,0.8s-0.6,1.3-0.6,2.5v0.2c0,1.2,0.2,2.1,0.6,2.6
		C666.5,356.9,667.1,357.2,668.1,357.2z"/>
	<path class="st11" d="M674.3,357.7h-0.7v-11.3h0.7V357.7z"/>
	<path class="st11" d="M680.1,357.8c-1.2,0-2-0.4-2.7-1.1s-1-1.7-1-3c0-1.3,0.3-2.3,0.9-3c0.6-0.8,1.5-1.1,2.5-1.1
		c0.9,0,1.7,0.3,2.2,1s0.8,1.5,0.8,2.6v0.6h-5.7c0,1.1,0.3,1.9,0.8,2.5s1.2,0.9,2.1,0.9c0.5,0,0.8,0,1.2-0.1
		c0.3-0.1,0.8-0.2,1.3-0.4v0.7c-0.4,0.2-0.9,0.3-1.2,0.4S680.6,357.8,680.1,357.8z M679.9,350.3c-0.8,0-1.4,0.3-1.8,0.8
		c-0.5,0.5-0.7,1.2-0.8,2.2h4.9c0-0.9-0.2-1.6-0.6-2.1C681.2,350.5,680.6,350.3,679.9,350.3z"/>
	<path class="st11" d="M685,357.1c0-0.5,0.2-0.7,0.6-0.7c0.4,0,0.6,0.2,0.6,0.7s-0.2,0.7-0.6,0.7C685.2,357.8,685,357.6,685,357.1z"
		/>
	<path class="st11" d="M691.8,357.8c-1.1,0-2-0.4-2.7-1.1c-0.6-0.7-1-1.7-1-3c0-1.3,0.3-2.3,1-3.1s1.6-1.1,2.7-1.1
		c0.7,0,1.3,0.1,2,0.4l-0.2,0.6c-0.7-0.2-1.3-0.3-1.8-0.3c-1,0-1.7,0.3-2.2,0.9c-0.5,0.6-0.7,1.5-0.7,2.6c0,1.1,0.2,1.9,0.7,2.5
		c0.5,0.6,1.2,0.9,2.1,0.9c0.7,0,1.4-0.1,2-0.4v0.7C693.3,357.7,692.7,357.8,691.8,357.8z"/>
	<path class="st11" d="M700.7,355.6c0,0.7-0.3,1.3-0.8,1.6c-0.5,0.4-1.3,0.6-2.3,0.6c-1.1,0-1.9-0.2-2.5-0.5v-0.8
		c0.8,0.4,1.6,0.6,2.5,0.6c0.8,0,1.4-0.1,1.8-0.4c0.4-0.3,0.6-0.6,0.6-1c0-0.4-0.2-0.7-0.5-1c-0.3-0.3-0.9-0.5-1.6-0.8
		c-0.8-0.3-1.3-0.5-1.7-0.7c-0.3-0.2-0.6-0.4-0.7-0.7c-0.2-0.3-0.2-0.6-0.2-0.9c0-0.6,0.2-1.1,0.7-1.4c0.5-0.3,1.2-0.5,2.1-0.5
		c0.9,0,1.7,0.2,2.4,0.5l-0.3,0.7c-0.8-0.3-1.5-0.5-2.2-0.5c-0.6,0-1.2,0.1-1.5,0.3c-0.4,0.2-0.6,0.5-0.6,0.9c0,0.4,0.1,0.7,0.4,1
		c0.3,0.2,0.9,0.5,1.7,0.8c0.7,0.3,1.2,0.5,1.6,0.7s0.6,0.4,0.7,0.7C700.6,355,700.7,355.3,700.7,355.6z"/>
	<path class="st11" d="M707.6,355.6c0,0.7-0.3,1.3-0.8,1.6c-0.5,0.4-1.3,0.6-2.3,0.6c-1.1,0-1.9-0.2-2.5-0.5v-0.8
		c0.8,0.4,1.6,0.6,2.5,0.6c0.8,0,1.4-0.1,1.8-0.4s0.6-0.6,0.6-1c0-0.4-0.2-0.7-0.5-1s-0.9-0.5-1.6-0.8c-0.8-0.3-1.3-0.5-1.7-0.7
		c-0.3-0.2-0.6-0.4-0.7-0.7s-0.2-0.6-0.2-0.9c0-0.6,0.2-1.1,0.7-1.4c0.5-0.3,1.2-0.5,2.1-0.5c0.9,0,1.7,0.2,2.4,0.5l-0.3,0.7
		c-0.8-0.3-1.5-0.5-2.2-0.5c-0.6,0-1.2,0.1-1.5,0.3c-0.4,0.2-0.6,0.5-0.6,0.9c0,0.4,0.1,0.7,0.4,1c0.3,0.2,0.9,0.5,1.7,0.8
		c0.7,0.3,1.2,0.5,1.6,0.7s0.6,0.4,0.7,0.7C707.5,355,707.6,355.3,707.6,355.6z"/>
</g>
<g class="st5">
	<path class="st11" d="M627,318.1c-0.4,0-0.7-0.1-1-0.2v-0.6c0.3,0.1,0.6,0.1,0.9,0.1c0.7,0,1.1-0.4,1.1-1.3v-9.5h0.7v9.4
		c0,0.7-0.2,1.2-0.5,1.5C628,317.9,627.6,318.1,627,318.1z M628,304.4c0-0.5,0.2-0.7,0.5-0.7c0.2,0,0.3,0.1,0.4,0.2
		c0.1,0.1,0.1,0.3,0.1,0.5c0,0.2,0,0.4-0.1,0.5c-0.1,0.1-0.2,0.2-0.4,0.2C628.1,305.1,628,304.9,628,304.4z"/>
	<path class="st11" d="M634.2,314.7c-1,0-1.8-0.3-2.4-1s-0.9-1.7-0.9-3c0-1.3,0.3-2.4,0.9-3.1s1.4-1.1,2.5-1.1c1.1,0,2,0.4,2.6,1.3
		h0l0.1-1.1h0.6v11.5h-0.7v-3c0-0.6,0-1.2,0-1.8h0C636.4,314.2,635.5,314.7,634.2,314.7z M634.3,314c1,0,1.6-0.3,2.1-0.8
		c0.4-0.5,0.6-1.4,0.6-2.7v-0.1c0-1.2-0.2-2-0.6-2.6c-0.4-0.5-1.1-0.8-2-0.8c-0.9,0-1.5,0.3-1.9,0.9c-0.4,0.6-0.7,1.5-0.7,2.6
		c0,1.1,0.2,1.9,0.7,2.5C632.8,313.8,633.4,314,634.3,314z"/>
	<path class="st11" d="M640.9,306.6v5.1c0,0.8,0.2,1.4,0.5,1.7c0.3,0.4,0.9,0.5,1.6,0.5c0.9,0,1.6-0.2,2.1-0.7
		c0.4-0.5,0.7-1.2,0.7-2.3v-4.4h0.7v7.9h-0.6l-0.1-1.1h0c-0.5,0.8-1.4,1.2-2.7,1.2c-1.8,0-2.7-1-2.7-2.9v-5.2L640.9,306.6
		L640.9,306.6z"/>
	<path class="st11" d="M652.3,314.7c-1.1,0-2-0.4-2.7-1.1s-1-1.7-1-3c0-1.3,0.3-2.3,0.9-3c0.6-0.8,1.5-1.1,2.5-1.1
		c0.9,0,1.7,0.3,2.2,1s0.8,1.5,0.8,2.6v0.6h-5.7c0,1.1,0.3,1.9,0.8,2.5c0.5,0.6,1.2,0.9,2.1,0.9c0.5,0,0.8,0,1.2-0.1
		s0.8-0.2,1.3-0.4v0.7c-0.4,0.2-0.9,0.3-1.2,0.4S652.7,314.7,652.3,314.7z M652.1,307.1c-0.8,0-1.4,0.3-1.8,0.8
		c-0.5,0.5-0.7,1.2-0.8,2.2h4.9c0-0.9-0.2-1.6-0.6-2.1C653.3,307.4,652.8,307.1,652.1,307.1z"/>
	<path class="st11" d="M660.4,306.5c0.3,0,0.7,0,1.1,0.1l-0.1,0.7c-0.3-0.1-0.7-0.1-1-0.1c-0.7,0-1.2,0.3-1.7,0.9
		c-0.4,0.6-0.6,1.3-0.6,2.2v4.4h-0.7v-7.9h0.6l0.1,1.4h0.1c0.3-0.6,0.7-1,1-1.2S659.9,306.5,660.4,306.5z"/>
	<path class="st11" d="M661.7,306.6h0.7l1.7,4.4c0.5,1.4,0.8,2.3,1,2.8h0c0.2-0.6,0.5-1.6,1-2.8l1.7-4.4h0.7l-3.5,9.2
		c-0.3,0.7-0.5,1.3-0.7,1.5c-0.2,0.3-0.4,0.5-0.7,0.6s-0.6,0.2-0.9,0.2c-0.3,0-0.6-0.1-0.9-0.2v-0.6c0.3,0.1,0.6,0.1,0.9,0.1
		c0.2,0,0.5-0.1,0.7-0.2c0.2-0.1,0.4-0.3,0.5-0.5s0.3-0.6,0.5-1.2s0.3-0.9,0.4-1L661.7,306.6z"/>
	<path class="st11" d="M669.8,314c0-0.5,0.2-0.7,0.6-0.7c0.4,0,0.6,0.2,0.6,0.7s-0.2,0.7-0.6,0.7C670,314.7,669.8,314.5,669.8,314z"
		/>
	<path class="st11" d="M672.4,318.1c-0.4,0-0.7-0.1-1-0.2v-0.6c0.3,0.1,0.6,0.1,0.9,0.1c0.7,0,1.1-0.4,1.1-1.3v-9.5h0.7v9.4
		c0,0.7-0.2,1.2-0.5,1.5C673.4,317.9,673,318.1,672.4,318.1z M673.3,304.4c0-0.5,0.2-0.7,0.5-0.7c0.2,0,0.3,0.1,0.4,0.2
		c0.1,0.1,0.1,0.3,0.1,0.5c0,0.2,0,0.4-0.1,0.5c-0.1,0.1-0.2,0.2-0.4,0.2C673.5,305.1,673.3,304.9,673.3,304.4z"/>
	<path class="st11" d="M681.7,312.5c0,0.7-0.3,1.3-0.8,1.6s-1.3,0.6-2.3,0.6c-1.1,0-1.9-0.2-2.5-0.5v-0.8c0.8,0.4,1.6,0.6,2.5,0.6
		c0.8,0,1.4-0.1,1.8-0.4c0.4-0.3,0.6-0.6,0.6-1c0-0.4-0.2-0.7-0.5-1c-0.3-0.3-0.9-0.5-1.6-0.8c-0.8-0.3-1.3-0.5-1.7-0.7
		c-0.3-0.2-0.6-0.4-0.7-0.7c-0.2-0.3-0.2-0.6-0.2-0.9c0-0.6,0.2-1.1,0.7-1.4c0.5-0.3,1.2-0.5,2.1-0.5c0.9,0,1.7,0.2,2.4,0.5
		l-0.3,0.7c-0.8-0.3-1.5-0.5-2.2-0.5c-0.6,0-1.2,0.1-1.5,0.3s-0.6,0.5-0.6,0.9c0,0.4,0.1,0.7,0.4,1c0.3,0.2,0.9,0.5,1.7,0.8
		c0.7,0.3,1.2,0.5,1.6,0.7c0.3,0.2,0.6,0.4,0.7,0.7C681.6,311.8,681.7,312.1,681.7,312.5z"/>
</g>
<g>
	<path class="st11" d="M611.3,322.7h-20.4c-0.4,0-0.7-0.3-0.7-0.7v-23.5c0-0.4,0.3-0.7,0.7-0.7h20.4c0.4,0,0.7,0.3,0.7,0.7V322
		C612,322.4,611.7,322.7,611.3,322.7z"/>
	<path class="st14" d="M613.4,320.8H593c-0.4,0-0.7-0.3-0.7-0.7v-23.7c0-0.4,0.3-0.7,0.7-0.7h20.4c0.4,0,0.7,0.3,0.7,0.7v23.7
		C614.1,320.5,613.8,320.8,613.4,320.8z"/>
	<g>
		<line class="st15" x1="596.4" y1="316.1" x2="604.2" y2="316.1"/>
		<line class="st15" x1="596.4" y1="309.1" x2="609.1" y2="309.1"/>
		<line class="st15" x1="596.4" y1="312.6" x2="609.1" y2="312.6"/>
		<line class="st15" x1="596.4" y1="302.2" x2="606.8" y2="302.2"/>
		<line class="st15" x1="596.4" y1="305.6" x2="609.1" y2="305.6"/>
	</g>
</g>
<g>
	<path class="st11" d="M611.3,365.9h-20.4c-0.4,0-0.7-0.3-0.7-0.7v-23.5c0-0.4,0.3-0.7,0.7-0.7h20.4c0.4,0,0.7,0.3,0.7,0.7v23.5
		C612,365.6,611.7,365.9,611.3,365.9z"/>
	<path class="st14" d="M613.4,363.9H593c-0.4,0-0.7-0.3-0.7-0.7v-23.7c0-0.4,0.3-0.7,0.7-0.7h20.4c0.4,0,0.7,0.3,0.7,0.7v23.7
		C614.1,363.6,613.8,363.9,613.4,363.9z"/>
	<g>
		<line class="st15" x1="596.4" y1="359.2" x2="604.2" y2="359.2"/>
		<line class="st15" x1="596.4" y1="352.3" x2="609.1" y2="352.3"/>
		<line class="st15" x1="596.4" y1="355.7" x2="609.1" y2="355.7"/>
		<line class="st15" x1="596.4" y1="345.3" x2="606.8" y2="345.3"/>
		<line class="st15" x1="596.4" y1="348.8" x2="609.1" y2="348.8"/>
	</g>
</g>
<g>
	<path class="st11" d="M617.7,407.8H586c-0.4,0-0.7-0.3-0.7-0.7V384c0-0.4,0.3-0.7,0.7-0.7h31.7c0.4,0,0.7,0.3,0.7,0.7v23.1
		C618.4,407.5,618.1,407.8,617.7,407.8z"/>
	<polygon class="st12" points="587,396.5 592.4,400.4 601.7,392.7 605.8,395.7 609.6,392.2 616.8,398 616.7,406.2 587,406.2 	"/>
	<circle class="st12" cx="594" cy="391.3" r="2.4"/>
</g>
<g class="st5">
	<path class="st11" d="M314,391.1c0-0.5,0.2-0.7,0.5-0.7c0.1,0,0.3,0.1,0.4,0.2c0.1,0.1,0.1,0.3,0.1,0.5c0,0.2,0,0.4-0.1,0.5
		c-0.1,0.1-0.2,0.2-0.4,0.2C314.1,391.8,314,391.5,314,391.1z M314.8,401.2h-0.7v-7.9h0.7V401.2z"/>
	<path class="st11" d="M327.3,401.2V396c0-0.8-0.2-1.3-0.5-1.7c-0.3-0.4-0.8-0.5-1.4-0.5c-0.8,0-1.4,0.2-1.8,0.7
		c-0.4,0.4-0.6,1.1-0.6,2.1v4.6h-0.7v-5.4c0-1.3-0.6-2-1.8-2c-0.8,0-1.4,0.2-1.8,0.7c-0.4,0.5-0.6,1.3-0.6,2.3v4.4h-0.7v-7.9h0.6
		l0.2,1.1h0c0.2-0.4,0.5-0.7,0.9-0.9c0.4-0.2,0.8-0.3,1.3-0.3c1.2,0,2,0.5,2.4,1.4h0c0.3-0.5,0.6-0.8,1-1c0.4-0.2,0.9-0.4,1.5-0.4
		c0.9,0,1.5,0.2,1.9,0.7s0.6,1.2,0.6,2.2v5.2L327.3,401.2L327.3,401.2L327.3,401.2z"/>
	<path class="st11" d="M335.4,401.2l-0.2-1.3h-0.1c-0.4,0.5-0.8,0.9-1.2,1.1c-0.4,0.2-0.9,0.3-1.5,0.3c-0.8,0-1.4-0.2-1.8-0.6
		s-0.6-0.9-0.6-1.7c0-0.8,0.3-1.4,1-1.8c0.6-0.4,1.6-0.7,2.8-0.7l1.5,0V396c0-0.8-0.2-1.3-0.5-1.7c-0.3-0.4-0.8-0.6-1.5-0.6
		c-0.7,0-1.5,0.2-2.3,0.6l-0.3-0.6c0.9-0.4,1.7-0.6,2.6-0.6c0.9,0,1.5,0.2,1.9,0.7s0.6,1.2,0.6,2.1v5.3L335.4,401.2L335.4,401.2z
		 M332.5,400.7c0.8,0,1.5-0.2,2-0.7c0.5-0.5,0.7-1.2,0.7-2v-0.8l-1.4,0.1c-1.1,0.1-1.9,0.2-2.4,0.5c-0.5,0.3-0.7,0.8-0.7,1.4
		c0,0.5,0.2,0.9,0.5,1.2C331.5,400.5,332,400.7,332.5,400.7z"/>
	<path class="st11" d="M344.7,393.3v0.5l-1.6,0.1c0.4,0.5,0.7,1.1,0.7,1.8c0,0.8-0.3,1.4-0.8,1.9s-1.2,0.7-2,0.7c-0.4,0-0.6,0-0.8,0
		c-0.3,0.1-0.5,0.3-0.7,0.5c-0.2,0.2-0.2,0.4-0.2,0.6c0,0.3,0.1,0.4,0.3,0.6c0.2,0.1,0.5,0.2,1,0.2h1.4c0.9,0,1.5,0.2,2,0.5
		s0.7,0.9,0.7,1.5c0,0.8-0.3,1.5-1,1.9c-0.7,0.5-1.6,0.7-2.9,0.7c-1,0-1.8-0.2-2.3-0.6c-0.5-0.4-0.8-0.9-0.8-1.6
		c0-0.5,0.2-1,0.5-1.4c0.3-0.4,0.8-0.6,1.4-0.7c-0.2-0.1-0.4-0.2-0.6-0.4s-0.2-0.4-0.2-0.6c0-0.5,0.3-1,1-1.4
		c-0.5-0.2-0.8-0.5-1.1-0.9s-0.4-0.9-0.4-1.4c0-0.8,0.3-1.4,0.8-1.9c0.5-0.5,1.2-0.7,2-0.7c0.5,0,0.9,0.1,1.2,0.2L344.7,393.3
		L344.7,393.3z M338.3,402.5c0,1.1,0.8,1.6,2.4,1.6c2.1,0,3.1-0.7,3.1-2c0-0.5-0.2-0.8-0.5-1c-0.3-0.2-0.9-0.3-1.6-0.3h-1.3
		C339,400.8,338.3,401.4,338.3,402.5z M338.9,395.7c0,0.6,0.2,1.1,0.6,1.4s0.9,0.5,1.5,0.5c0.7,0,1.2-0.2,1.5-0.5
		c0.4-0.3,0.5-0.8,0.5-1.5c0-0.7-0.2-1.2-0.5-1.5c-0.4-0.3-0.9-0.5-1.5-0.5c-0.6,0-1.1,0.2-1.5,0.5S338.9,395.1,338.9,395.7z"/>
	<path class="st11" d="M349.5,401.3c-1.1,0-2-0.4-2.7-1.1s-1-1.7-1-3c0-1.3,0.3-2.3,0.9-3c0.6-0.8,1.5-1.1,2.5-1.1
		c0.9,0,1.7,0.3,2.2,1s0.8,1.5,0.8,2.6v0.6h-5.7c0,1.1,0.3,1.9,0.8,2.5c0.5,0.6,1.2,0.9,2.1,0.9c0.5,0,0.8,0,1.2-0.1
		s0.8-0.2,1.3-0.4v0.7c-0.4,0.2-0.9,0.3-1.2,0.4S350,401.3,349.5,401.3z M349.3,393.7c-0.8,0-1.4,0.3-1.8,0.8
		c-0.5,0.5-0.7,1.2-0.8,2.2h4.9c0-0.9-0.2-1.6-0.6-2.1S350,393.7,349.3,393.7z"/>
	<path class="st11" d="M354.3,400.6c0-0.5,0.2-0.7,0.6-0.7c0.4,0,0.6,0.2,0.6,0.7s-0.2,0.7-0.6,0.7
		C354.5,401.3,354.3,401.1,354.3,400.6z"/>
	<path class="st11" d="M361.4,401.3c-1.2,0-2.1-0.5-2.7-1.4h-0.1l0,0.6c0,0.4,0,0.8,0,1.2v3H358v-11.5h0.6l0.1,1.1h0
		c0.5-0.9,1.4-1.3,2.6-1.3c1.1,0,1.9,0.4,2.4,1.1c0.6,0.7,0.8,1.7,0.8,3.1c0,1.3-0.3,2.3-0.9,3S362.4,401.3,361.4,401.3z
		 M361.4,400.7c0.8,0,1.4-0.3,1.9-0.9c0.4-0.6,0.7-1.4,0.7-2.5c0-2.3-0.8-3.5-2.5-3.5c-0.9,0-1.6,0.3-2,0.8s-0.6,1.3-0.6,2.5v0.2
		c0,1.2,0.2,2.1,0.6,2.6S360.5,400.7,361.4,400.7z"/>
	<path class="st11" d="M372.4,401.2V396c0-0.8-0.2-1.4-0.5-1.7s-0.9-0.5-1.6-0.5c-0.9,0-1.6,0.2-2.1,0.7s-0.7,1.3-0.7,2.3v4.4h-0.7
		v-7.9h0.6l0.1,1.1h0c0.5-0.8,1.4-1.2,2.7-1.2c1.8,0,2.7,1,2.7,2.9v5.2L372.4,401.2L372.4,401.2L372.4,401.2z"/>
	<path class="st11" d="M381.9,393.3v0.5l-1.6,0.1c0.4,0.5,0.7,1.1,0.7,1.8c0,0.8-0.3,1.4-0.8,1.9s-1.2,0.7-2,0.7c-0.4,0-0.6,0-0.8,0
		c-0.3,0.1-0.5,0.3-0.7,0.5c-0.2,0.2-0.2,0.4-0.2,0.6c0,0.3,0.1,0.4,0.3,0.6c0.2,0.1,0.5,0.2,1,0.2h1.4c0.9,0,1.5,0.2,2,0.5
		s0.7,0.9,0.7,1.5c0,0.8-0.3,1.5-1,1.9c-0.7,0.5-1.6,0.7-2.9,0.7c-1,0-1.8-0.2-2.3-0.6c-0.5-0.4-0.8-0.9-0.8-1.6
		c0-0.5,0.2-1,0.5-1.4c0.3-0.4,0.8-0.6,1.4-0.7c-0.2-0.1-0.4-0.2-0.6-0.4s-0.2-0.4-0.2-0.6c0-0.5,0.3-1,1-1.4
		c-0.5-0.2-0.8-0.5-1.1-0.9s-0.4-0.9-0.4-1.4c0-0.8,0.3-1.4,0.8-1.9c0.5-0.5,1.2-0.7,2-0.7c0.5,0,0.9,0.1,1.2,0.2L381.9,393.3
		L381.9,393.3z M375.5,402.5c0,1.1,0.8,1.6,2.4,1.6c2.1,0,3.1-0.7,3.1-2c0-0.5-0.2-0.8-0.5-1c-0.3-0.2-0.9-0.3-1.6-0.3h-1.3
		C376.2,400.8,375.5,401.4,375.5,402.5z M376.1,395.7c0,0.6,0.2,1.1,0.6,1.4s0.9,0.5,1.5,0.5c0.7,0,1.2-0.2,1.5-0.5
		c0.4-0.3,0.5-0.8,0.5-1.5c0-0.7-0.2-1.2-0.5-1.5c-0.4-0.3-0.9-0.5-1.5-0.5c-0.6,0-1.1,0.2-1.5,0.5S376.1,395.1,376.1,395.7z"/>
</g>
<g class="st5">
	<path class="st11" d="M317.3,357.8c-1.1,0-2-0.4-2.7-1.1s-1-1.7-1-3c0-1.3,0.3-2.3,0.9-3c0.6-0.8,1.5-1.1,2.5-1.1
		c0.9,0,1.7,0.3,2.2,1s0.8,1.5,0.8,2.6v0.6h-5.7c0,1.1,0.3,1.9,0.8,2.5c0.5,0.6,1.2,0.9,2.1,0.9c0.5,0,0.8,0,1.2-0.1
		s0.8-0.2,1.3-0.4v0.7c-0.4,0.2-0.9,0.3-1.2,0.4S317.7,357.8,317.3,357.8z M317.1,350.3c-0.8,0-1.4,0.3-1.8,0.8
		c-0.5,0.5-0.7,1.2-0.8,2.2h4.9c0-0.9-0.2-1.6-0.6-2.1S317.8,350.3,317.1,350.3z"/>
	<path class="st11" d="M324.2,353.6l-2.8-3.8h0.8l2.4,3.3l2.3-3.3h0.8l-2.7,3.8l2.9,4.1h-0.8l-2.5-3.5l-2.5,3.5h-0.8L324.2,353.6z"
		/>
	<path class="st11" d="M334.5,357.7l-0.2-1.3h-0.1c-0.4,0.5-0.8,0.9-1.2,1.1c-0.4,0.2-0.9,0.3-1.5,0.3c-0.8,0-1.4-0.2-1.8-0.6
		s-0.6-0.9-0.6-1.7c0-0.8,0.3-1.4,1-1.8c0.6-0.4,1.6-0.7,2.8-0.7l1.5,0v-0.5c0-0.8-0.2-1.3-0.5-1.7c-0.3-0.4-0.8-0.6-1.5-0.6
		c-0.7,0-1.5,0.2-2.3,0.6l-0.3-0.6c0.9-0.4,1.7-0.6,2.6-0.6c0.9,0,1.5,0.2,1.9,0.7s0.6,1.2,0.6,2.1v5.3L334.5,357.7L334.5,357.7z
		 M331.6,357.2c0.8,0,1.5-0.2,2-0.7c0.5-0.5,0.7-1.2,0.7-2v-0.8l-1.4,0.1c-1.1,0.1-1.9,0.2-2.4,0.5c-0.5,0.3-0.7,0.8-0.7,1.4
		c0,0.5,0.2,0.9,0.5,1.2C330.6,357.1,331,357.2,331.6,357.2z"/>
	<path class="st11" d="M347.5,357.7v-5.2c0-0.8-0.2-1.3-0.5-1.7c-0.3-0.4-0.8-0.5-1.4-0.5c-0.8,0-1.4,0.2-1.8,0.7
		c-0.4,0.4-0.6,1.1-0.6,2.1v4.6h-0.7v-5.4c0-1.3-0.6-2-1.8-2c-0.8,0-1.4,0.2-1.8,0.7c-0.4,0.5-0.6,1.3-0.6,2.3v4.4h-0.7v-7.9h0.6
		l0.2,1.1h0c0.2-0.4,0.5-0.7,0.9-0.9c0.4-0.2,0.8-0.3,1.3-0.3c1.2,0,2,0.5,2.4,1.4h0c0.3-0.5,0.6-0.8,1-1c0.4-0.2,0.9-0.4,1.5-0.4
		c0.9,0,1.5,0.2,1.9,0.7s0.6,1.2,0.6,2.2v5.2L347.5,357.7L347.5,357.7z"/>
	<path class="st11" d="M354.1,357.8c-1.2,0-2.1-0.5-2.7-1.4h-0.1l0,0.6c0,0.4,0,0.8,0,1.2v3h-0.7v-11.5h0.6l0.1,1.1h0
		c0.5-0.9,1.4-1.3,2.6-1.3c1.1,0,1.9,0.4,2.4,1.1c0.6,0.7,0.8,1.7,0.8,3.1c0,1.3-0.3,2.3-0.9,3S355.2,357.8,354.1,357.8z
		 M354.1,357.2c0.8,0,1.4-0.3,1.9-0.9c0.4-0.6,0.7-1.4,0.7-2.5c0-2.3-0.8-3.5-2.5-3.5c-0.9,0-1.6,0.3-2,0.8s-0.6,1.3-0.6,2.5v0.2
		c0,1.2,0.2,2.1,0.6,2.6C352.5,356.9,353.2,357.2,354.1,357.2z"/>
	<path class="st11" d="M360.3,357.7h-0.7v-11.3h0.7V357.7z"/>
	<path class="st11" d="M366.2,357.8c-1.1,0-2-0.4-2.7-1.1s-1-1.7-1-3c0-1.3,0.3-2.3,0.9-3c0.6-0.8,1.5-1.1,2.5-1.1
		c0.9,0,1.7,0.3,2.2,1s0.8,1.5,0.8,2.6v0.6h-5.7c0,1.1,0.3,1.9,0.8,2.5c0.5,0.6,1.2,0.9,2.1,0.9c0.5,0,0.8,0,1.2-0.1
		s0.8-0.2,1.3-0.4v0.7c-0.4,0.2-0.9,0.3-1.2,0.4S366.6,357.8,366.2,357.8z M366,350.3c-0.8,0-1.4,0.3-1.8,0.8
		c-0.5,0.5-0.7,1.2-0.8,2.2h4.9c0-0.9-0.2-1.6-0.6-2.1S366.7,350.3,366,350.3z"/>
	<path class="st11" d="M371,357.1c0-0.5,0.2-0.7,0.6-0.7c0.4,0,0.6,0.2,0.6,0.7s-0.2,0.7-0.6,0.7C371.2,357.8,371,357.6,371,357.1z"
		/>
	<path class="st11" d="M377.9,357.8c-1.1,0-2-0.4-2.7-1.1c-0.6-0.7-1-1.7-1-3c0-1.3,0.3-2.3,1-3.1s1.6-1.1,2.7-1.1
		c0.7,0,1.3,0.1,2,0.4l-0.2,0.6c-0.7-0.2-1.3-0.3-1.8-0.3c-1,0-1.7,0.3-2.2,0.9c-0.5,0.6-0.8,1.5-0.8,2.6c0,1.1,0.2,1.9,0.8,2.5
		c0.5,0.6,1.2,0.9,2.1,0.9c0.7,0,1.4-0.1,2-0.4v0.7C379.4,357.7,378.7,357.8,377.9,357.8z"/>
	<path class="st11" d="M386.7,355.6c0,0.7-0.3,1.3-0.8,1.6s-1.3,0.6-2.3,0.6c-1.1,0-1.9-0.2-2.5-0.5v-0.8c0.8,0.4,1.6,0.6,2.5,0.6
		c0.8,0,1.4-0.1,1.8-0.4s0.6-0.6,0.6-1c0-0.4-0.2-0.7-0.5-1c-0.3-0.3-0.9-0.5-1.6-0.8c-0.8-0.3-1.3-0.5-1.7-0.7
		c-0.3-0.2-0.6-0.4-0.7-0.7c-0.2-0.3-0.2-0.6-0.2-0.9c0-0.6,0.2-1.1,0.7-1.4s1.2-0.5,2.1-0.5c0.9,0,1.7,0.2,2.4,0.5l-0.3,0.7
		c-0.8-0.3-1.5-0.5-2.2-0.5c-0.6,0-1.2,0.1-1.5,0.3s-0.6,0.5-0.6,0.9c0,0.4,0.1,0.7,0.4,1c0.3,0.2,0.9,0.5,1.7,0.8
		c0.7,0.3,1.2,0.5,1.6,0.7s0.6,0.4,0.7,0.7C386.6,355,386.7,355.3,386.7,355.6z"/>
	<path class="st11" d="M393.6,355.6c0,0.7-0.3,1.3-0.8,1.6s-1.3,0.6-2.3,0.6c-1.1,0-1.9-0.2-2.5-0.5v-0.8c0.8,0.4,1.6,0.6,2.5,0.6
		c0.8,0,1.4-0.1,1.8-0.4s0.6-0.6,0.6-1c0-0.4-0.2-0.7-0.5-1c-0.3-0.3-0.9-0.5-1.6-0.8c-0.8-0.3-1.3-0.5-1.7-0.7
		c-0.3-0.2-0.6-0.4-0.7-0.7c-0.2-0.3-0.2-0.6-0.2-0.9c0-0.6,0.2-1.1,0.7-1.4s1.2-0.5,2.1-0.5c0.9,0,1.7,0.2,2.4,0.5l-0.3,0.7
		c-0.8-0.3-1.5-0.5-2.2-0.5c-0.6,0-1.2,0.1-1.5,0.3s-0.6,0.5-0.6,0.9c0,0.4,0.1,0.7,0.4,1c0.3,0.2,0.9,0.5,1.7,0.8
		c0.7,0.3,1.2,0.5,1.6,0.7s0.6,0.4,0.7,0.7C393.6,355,393.6,355.3,393.6,355.6z"/>
</g>
<g class="st5">
	<path class="st11" d="M313,318.1c-0.4,0-0.7-0.1-1-0.2v-0.6c0.3,0.1,0.6,0.1,0.9,0.1c0.7,0,1.1-0.4,1.1-1.3v-9.5h0.7v9.4
		c0,0.7-0.2,1.2-0.5,1.5C314,317.9,313.6,318.1,313,318.1z M314,304.4c0-0.5,0.2-0.7,0.5-0.7c0.1,0,0.3,0.1,0.4,0.2
		c0.1,0.1,0.1,0.3,0.1,0.5c0,0.2,0,0.4-0.1,0.5c-0.1,0.1-0.2,0.2-0.4,0.2C314.1,305.1,314,304.9,314,304.4z"/>
	<path class="st11" d="M320.3,314.7c-1,0-1.8-0.3-2.4-1s-0.9-1.7-0.9-3c0-1.3,0.3-2.4,0.9-3.1s1.4-1.1,2.5-1.1c1.1,0,2,0.4,2.6,1.3
		h0l0.1-1.1h0.6v11.5H323v-3c0-0.6,0-1.2,0-1.8h0C322.4,314.2,321.5,314.7,320.3,314.7z M320.3,314c1,0,1.6-0.3,2.1-0.8
		c0.4-0.5,0.6-1.4,0.6-2.7v-0.1c0-1.2-0.2-2-0.6-2.6c-0.4-0.5-1.1-0.8-2-0.8c-0.9,0-1.5,0.3-1.9,0.9s-0.7,1.5-0.7,2.6
		c0,1.1,0.2,1.9,0.7,2.5S319.5,314,320.3,314z"/>
	<path class="st11" d="M327,306.6v5.1c0,0.8,0.2,1.4,0.5,1.7c0.3,0.4,0.9,0.5,1.6,0.5c0.9,0,1.6-0.2,2.1-0.7s0.7-1.2,0.7-2.3v-4.4
		h0.7v7.9h-0.6l-0.1-1.1h0c-0.5,0.8-1.4,1.2-2.7,1.2c-1.8,0-2.7-1-2.7-2.9v-5.2L327,306.6L327,306.6L327,306.6z"/>
	<path class="st11" d="M338.3,314.7c-1.1,0-2-0.4-2.7-1.1s-1-1.7-1-3c0-1.3,0.3-2.3,0.9-3c0.6-0.8,1.5-1.1,2.5-1.1
		c0.9,0,1.7,0.3,2.2,1s0.8,1.5,0.8,2.6v0.6h-5.7c0,1.1,0.3,1.9,0.8,2.5c0.5,0.6,1.2,0.9,2.1,0.9c0.5,0,0.8,0,1.2-0.1
		s0.8-0.2,1.3-0.4v0.7c-0.4,0.2-0.9,0.3-1.2,0.4S338.8,314.7,338.3,314.7z M338.1,307.1c-0.8,0-1.4,0.3-1.8,0.8
		c-0.5,0.5-0.7,1.2-0.8,2.2h4.9c0-0.9-0.2-1.6-0.6-2.1S338.8,307.1,338.1,307.1z"/>
	<path class="st11" d="M346.4,306.5c0.3,0,0.7,0,1.1,0.1l-0.1,0.7c-0.3-0.1-0.7-0.1-1-0.1c-0.7,0-1.2,0.3-1.7,0.9
		c-0.4,0.6-0.6,1.3-0.6,2.2v4.4h-0.7v-7.9h0.6l0.1,1.4h0.1c0.3-0.6,0.7-1,1-1.2S345.9,306.5,346.4,306.5z"/>
	<path class="st11" d="M347.8,306.6h0.7l1.7,4.4c0.5,1.4,0.8,2.3,1,2.8h0c0.2-0.6,0.5-1.6,1-2.8l1.7-4.4h0.7l-3.5,9.2
		c-0.3,0.7-0.5,1.3-0.7,1.5c-0.2,0.3-0.4,0.5-0.7,0.6c-0.3,0.1-0.6,0.2-0.9,0.2c-0.3,0-0.6-0.1-0.9-0.2v-0.6
		c0.3,0.1,0.6,0.1,0.9,0.1c0.2,0,0.5-0.1,0.7-0.2c0.2-0.1,0.4-0.3,0.5-0.5s0.3-0.6,0.5-1.2c0.2-0.5,0.3-0.9,0.4-1L347.8,306.6z"/>
	<path class="st11" d="M355.8,314c0-0.5,0.2-0.7,0.6-0.7c0.4,0,0.6,0.2,0.6,0.7s-0.2,0.7-0.6,0.7C356,314.7,355.8,314.5,355.8,314z"
		/>
	<path class="st11" d="M358.4,318.1c-0.4,0-0.7-0.1-1-0.2v-0.6c0.3,0.1,0.6,0.1,0.9,0.1c0.7,0,1.1-0.4,1.1-1.3v-9.5h0.7v9.4
		c0,0.7-0.2,1.2-0.5,1.5C359.4,317.9,359,318.1,358.4,318.1z M359.4,304.4c0-0.5,0.2-0.7,0.5-0.7c0.1,0,0.3,0.1,0.4,0.2
		c0.1,0.1,0.1,0.3,0.1,0.5c0,0.2,0,0.4-0.1,0.5c-0.1,0.1-0.2,0.2-0.4,0.2C359.5,305.1,359.4,304.9,359.4,304.4z"/>
	<path class="st11" d="M367.8,312.5c0,0.7-0.3,1.3-0.8,1.6s-1.3,0.6-2.3,0.6c-1.1,0-1.9-0.2-2.5-0.5v-0.8c0.8,0.4,1.6,0.6,2.5,0.6
		c0.8,0,1.4-0.1,1.8-0.4s0.6-0.6,0.6-1c0-0.4-0.2-0.7-0.5-1c-0.3-0.3-0.9-0.5-1.6-0.8c-0.8-0.3-1.3-0.5-1.7-0.7
		c-0.3-0.2-0.6-0.4-0.7-0.7c-0.2-0.3-0.2-0.6-0.2-0.9c0-0.6,0.2-1.1,0.7-1.4s1.2-0.5,2.1-0.5c0.9,0,1.7,0.2,2.4,0.5l-0.3,0.7
		c-0.8-0.3-1.5-0.5-2.2-0.5c-0.6,0-1.2,0.1-1.5,0.3s-0.6,0.5-0.6,0.9c0,0.4,0.1,0.7,0.4,1c0.3,0.2,0.9,0.5,1.7,0.8
		c0.7,0.3,1.2,0.5,1.6,0.7s0.6,0.4,0.7,0.7C367.7,311.8,367.8,312.1,367.8,312.5z"/>
</g>
<g>
	<path class="st11" d="M297.4,322.7H277c-0.4,0-0.7-0.3-0.7-0.7v-23.5c0-0.4,0.3-0.7,0.7-0.7h20.4c0.4,0,0.7,0.3,0.7,0.7V322
		C298.1,322.4,297.8,322.7,297.4,322.7z"/>
	<path class="st14" d="M299.5,320.8H279c-0.4,0-0.7-0.3-0.7-0.7v-23.7c0-0.4,0.3-0.7,0.7-0.7h20.4c0.4,0,0.7,0.3,0.7,0.7v23.7
		C300.2,320.5,299.8,320.8,299.5,320.8z"/>
	<g>
		<line class="st15" x1="282.4" y1="316.1" x2="290.2" y2="316.1"/>
		<line class="st15" x1="282.4" y1="309.1" x2="295.2" y2="309.1"/>
		<line class="st15" x1="282.4" y1="312.6" x2="295.2" y2="312.6"/>
		<line class="st15" x1="282.4" y1="302.2" x2="292.9" y2="302.2"/>
		<line class="st15" x1="282.4" y1="305.6" x2="295.2" y2="305.6"/>
	</g>
</g>
<g>
	<path class="st11" d="M297.4,365.9H277c-0.4,0-0.7-0.3-0.7-0.7v-23.5c0-0.4,0.3-0.7,0.7-0.7h20.4c0.4,0,0.7,0.3,0.7,0.7v23.5
		C298.1,365.6,297.8,365.9,297.4,365.9z"/>
	<path class="st14" d="M299.5,363.9H279c-0.4,0-0.7-0.3-0.7-0.7v-23.7c0-0.4,0.3-0.7,0.7-0.7h20.4c0.4,0,0.7,0.3,0.7,0.7v23.7
		C300.2,363.6,299.8,363.9,299.5,363.9z"/>
	<g>
		<line class="st15" x1="282.4" y1="359.2" x2="290.2" y2="359.2"/>
		<line class="st15" x1="282.4" y1="352.3" x2="295.2" y2="352.3"/>
		<line class="st15" x1="282.4" y1="355.7" x2="295.2" y2="355.7"/>
		<line class="st15" x1="282.4" y1="345.3" x2="292.9" y2="345.3"/>
		<line class="st15" x1="282.4" y1="348.8" x2="295.2" y2="348.8"/>
	</g>
</g>
<g>
	<path class="st11" d="M303.8,407.8h-31.7c-0.4,0-0.7-0.3-0.7-0.7V384c0-0.4,0.3-0.7,0.7-0.7h31.7c0.4,0,0.7,0.3,0.7,0.7v23.1
		C304.5,407.5,304.1,407.8,303.8,407.8z"/>
	<polygon class="st12" points="273,396.5 278.5,400.4 287.7,392.7 291.8,395.7 295.6,392.2 302.8,398 302.8,406.2 273.1,406.2 	"/>
	<circle class="st12" cx="280.1" cy="391.3" r="2.4"/>
</g>
<line class="st3" x1="555" y1="352.4" x2="426" y2="352.4"/>
<polygon class="st4" points="431.7,352.3 431.8,360.5 424.6,356.5 417.5,352.4 424.6,348.3 431.6,344.1 "/>
<polygon class="st4" points="550.3,352.4 550.2,344.2 557.3,348.3 564.4,352.3 557.4,356.5 550.3,360.6 "/>
<g>
	<path class="st2" d="M721.7,74.8H572.1c-0.7,0-1.3-0.6-1.3-1.3V36.6c0-0.7,0.6-1.3,1.3-1.3h149.6c0.7,0,1.3,0.6,1.3,1.3v36.9
		C723,74.2,722.4,74.8,721.7,74.8z"/>
	<path class="st2" d="M721.7,118.2H572.1c-0.7,0-1.3-0.6-1.3-1.3v-37c0-0.7,0.6-1.3,1.3-1.3h149.6c0.7,0,1.3,0.6,1.3,1.3v36.9
		C723,117.6,722.4,118.2,721.7,118.2z"/>
	<path class="st2" d="M721.7,161.9H572.1c-0.7,0-1.3-0.6-1.3-1.3v-36.9c0-0.7,0.6-1.3,1.3-1.3h149.6c0.7,0,1.3,0.6,1.3,1.3v36.9
		C723,161.3,722.4,161.9,721.7,161.9z"/>
	<g class="st5">
		<path class="st11" d="M628.8,137.7c0-0.5,0.2-0.7,0.5-0.7c0.2,0,0.3,0.1,0.4,0.2c0.1,0.1,0.1,0.3,0.1,0.5c0,0.2,0,0.4-0.1,0.5
			c-0.1,0.1-0.2,0.2-0.4,0.2C628.9,138.4,628.8,138.2,628.8,137.7z M629.6,147.8h-0.7v-7.9h0.7V147.8z"/>
		<path class="st11" d="M642.1,147.8v-5.2c0-0.8-0.2-1.3-0.5-1.7c-0.3-0.4-0.8-0.5-1.4-0.5c-0.8,0-1.4,0.2-1.8,0.7s-0.6,1.1-0.6,2.1
			v4.6h-0.7v-5.4c0-1.3-0.6-2-1.8-2c-0.8,0-1.4,0.2-1.8,0.7c-0.4,0.5-0.6,1.3-0.6,2.3v4.4h-0.7v-7.9h0.6l0.2,1.1h0
			c0.2-0.4,0.5-0.7,0.9-0.9s0.8-0.3,1.3-0.3c1.2,0,2,0.5,2.4,1.4h0c0.3-0.5,0.6-0.8,1-1c0.4-0.2,0.9-0.4,1.5-0.4
			c0.9,0,1.5,0.2,1.9,0.7s0.6,1.2,0.6,2.2v5.2L642.1,147.8L642.1,147.8z"/>
		<path class="st11" d="M650.2,147.8l-0.2-1.3H650c-0.4,0.5-0.8,0.9-1.2,1.1c-0.4,0.2-0.9,0.3-1.5,0.3c-0.8,0-1.4-0.2-1.8-0.6
			s-0.6-0.9-0.6-1.7c0-0.8,0.3-1.4,1-1.8c0.6-0.4,1.6-0.7,2.8-0.7l1.5,0v-0.5c0-0.8-0.2-1.3-0.5-1.7c-0.3-0.4-0.8-0.6-1.5-0.6
			c-0.7,0-1.5,0.2-2.3,0.6l-0.3-0.6c0.9-0.4,1.7-0.6,2.6-0.6c0.9,0,1.5,0.2,1.9,0.7s0.6,1.2,0.6,2.1v5.3L650.2,147.8L650.2,147.8z
			 M647.3,147.3c0.8,0,1.5-0.2,2-0.7s0.7-1.2,0.7-2v-0.8l-1.4,0.1c-1.1,0.1-1.9,0.2-2.4,0.5c-0.5,0.3-0.7,0.8-0.7,1.4
			c0,0.5,0.2,0.9,0.5,1.2C646.3,147.2,646.8,147.3,647.3,147.3z"/>
		<path class="st11" d="M659.5,139.9v0.5l-1.6,0.1c0.4,0.5,0.7,1.1,0.7,1.8c0,0.8-0.3,1.4-0.8,1.9s-1.2,0.7-2,0.7
			c-0.4,0-0.6,0-0.8,0c-0.3,0.1-0.5,0.3-0.7,0.5c-0.2,0.2-0.2,0.4-0.2,0.6c0,0.3,0.1,0.4,0.3,0.6c0.2,0.1,0.5,0.2,1,0.2h1.4
			c0.9,0,1.5,0.2,2,0.5c0.5,0.3,0.7,0.9,0.7,1.5c0,0.8-0.3,1.5-1,1.9c-0.7,0.5-1.6,0.7-2.9,0.7c-1,0-1.8-0.2-2.3-0.6
			c-0.5-0.4-0.8-0.9-0.8-1.6c0-0.5,0.2-1,0.5-1.4c0.3-0.4,0.8-0.6,1.4-0.7c-0.2-0.1-0.4-0.2-0.6-0.4c-0.1-0.2-0.2-0.4-0.2-0.6
			c0-0.5,0.3-1,1-1.4c-0.5-0.2-0.8-0.5-1.1-0.9c-0.3-0.4-0.4-0.9-0.4-1.4c0-0.8,0.3-1.4,0.8-1.9s1.2-0.7,2-0.7
			c0.5,0,0.9,0.1,1.2,0.2H659.5z M653.1,149.1c0,1.1,0.8,1.6,2.4,1.6c2.1,0,3.1-0.7,3.1-2c0-0.5-0.2-0.8-0.5-1
			c-0.3-0.2-0.9-0.3-1.6-0.3h-1.3C653.8,147.4,653.1,148,653.1,149.1z M653.7,142.4c0,0.6,0.2,1.1,0.6,1.4s0.9,0.5,1.5,0.5
			c0.7,0,1.2-0.2,1.5-0.5c0.4-0.3,0.5-0.8,0.5-1.5c0-0.7-0.2-1.2-0.5-1.5c-0.4-0.3-0.9-0.5-1.5-0.5c-0.6,0-1.1,0.2-1.5,0.5
			S653.7,141.7,653.7,142.4z"/>
		<path class="st11" d="M664.3,148c-1.1,0-2-0.4-2.7-1.1s-1-1.7-1-3c0-1.3,0.3-2.3,0.9-3c0.6-0.8,1.5-1.1,2.5-1.1
			c0.9,0,1.7,0.3,2.2,1c0.5,0.6,0.8,1.5,0.8,2.6v0.6h-5.7c0,1.1,0.3,1.9,0.8,2.5s1.2,0.9,2.1,0.9c0.5,0,0.8,0,1.2-0.1
			c0.3-0.1,0.8-0.2,1.3-0.4v0.7c-0.4,0.2-0.9,0.3-1.2,0.4C665.2,147.9,664.8,148,664.3,148z M664.1,140.4c-0.8,0-1.4,0.3-1.8,0.8
			c-0.5,0.5-0.7,1.2-0.8,2.2h4.9c0-0.9-0.2-1.6-0.6-2.1C665.3,140.6,664.8,140.4,664.1,140.4z"/>
		<path class="st11" d="M669.1,147.2c0-0.5,0.2-0.7,0.6-0.7c0.4,0,0.6,0.2,0.6,0.7s-0.2,0.7-0.6,0.7
			C669.3,148,669.1,147.7,669.1,147.2z"/>
		<path class="st11" d="M676.2,148c-1.2,0-2.1-0.5-2.7-1.4h-0.1l0,0.6c0,0.4,0,0.8,0,1.2v3h-0.7v-11.5h0.6l0.1,1.1h0
			c0.5-0.9,1.4-1.3,2.6-1.3c1.1,0,1.9,0.4,2.4,1.1s0.8,1.7,0.8,3.1c0,1.3-0.3,2.3-0.9,3C678,147.6,677.2,148,676.2,148z
			 M676.2,147.3c0.8,0,1.4-0.3,1.9-0.9c0.4-0.6,0.7-1.4,0.7-2.5c0-2.3-0.8-3.5-2.5-3.5c-0.9,0-1.6,0.3-2,0.8s-0.6,1.3-0.6,2.5v0.2
			c0,1.2,0.2,2.1,0.6,2.6C674.6,147.1,675.3,147.3,676.2,147.3z"/>
		<path class="st11" d="M687.2,147.8v-5.1c0-0.8-0.2-1.4-0.5-1.7s-0.9-0.5-1.6-0.5c-0.9,0-1.6,0.2-2.1,0.7c-0.4,0.5-0.7,1.3-0.7,2.3
			v4.4h-0.7v-7.9h0.6l0.1,1.1h0c0.5-0.8,1.4-1.2,2.7-1.2c1.8,0,2.7,1,2.7,2.9v5.2L687.2,147.8L687.2,147.8z"/>
		<path class="st11" d="M696.7,139.9v0.5l-1.6,0.1c0.4,0.5,0.7,1.1,0.7,1.8c0,0.8-0.3,1.4-0.8,1.9s-1.2,0.7-2,0.7
			c-0.4,0-0.6,0-0.8,0c-0.3,0.1-0.5,0.3-0.7,0.5c-0.2,0.2-0.2,0.4-0.2,0.6c0,0.3,0.1,0.4,0.3,0.6c0.2,0.1,0.5,0.2,1,0.2h1.4
			c0.9,0,1.5,0.2,2,0.5s0.7,0.9,0.7,1.5c0,0.8-0.3,1.5-1,1.9c-0.7,0.5-1.6,0.7-2.9,0.7c-1,0-1.8-0.2-2.3-0.6
			c-0.5-0.4-0.8-0.9-0.8-1.6c0-0.5,0.2-1,0.5-1.4c0.3-0.4,0.8-0.6,1.4-0.7c-0.2-0.1-0.4-0.2-0.6-0.4c-0.1-0.2-0.2-0.4-0.2-0.6
			c0-0.5,0.3-1,1-1.4c-0.5-0.2-0.8-0.5-1.1-0.9c-0.3-0.4-0.4-0.9-0.4-1.4c0-0.8,0.3-1.4,0.8-1.9c0.5-0.5,1.2-0.7,2-0.7
			c0.5,0,0.9,0.1,1.2,0.2H696.7z M690.3,149.1c0,1.1,0.8,1.6,2.4,1.6c2.1,0,3.1-0.7,3.1-2c0-0.5-0.2-0.8-0.5-1
			c-0.3-0.2-0.9-0.3-1.6-0.3h-1.3C691,147.4,690.3,148,690.3,149.1z M690.9,142.4c0,0.6,0.2,1.1,0.6,1.4s0.9,0.5,1.5,0.5
			c0.7,0,1.2-0.2,1.5-0.5c0.4-0.3,0.5-0.8,0.5-1.5c0-0.7-0.2-1.2-0.5-1.5c-0.4-0.3-0.9-0.5-1.5-0.5c-0.6,0-1.1,0.2-1.5,0.5
			S690.9,141.7,690.9,142.4z"/>
	</g>
	<g class="st5">
		<path class="st11" d="M632.1,104.5c-1.1,0-2-0.4-2.7-1.1s-1-1.7-1-3c0-1.3,0.3-2.3,0.9-3c0.6-0.8,1.5-1.1,2.5-1.1
			c0.9,0,1.7,0.3,2.2,1c0.5,0.7,0.8,1.5,0.8,2.6v0.6h-5.7c0,1.1,0.3,1.9,0.8,2.5s1.2,0.9,2.1,0.9c0.5,0,0.8,0,1.2-0.1
			s0.8-0.2,1.3-0.4v0.7c-0.4,0.2-0.9,0.3-1.2,0.4C633,104.4,632.5,104.5,632.1,104.5z M631.9,96.9c-0.8,0-1.4,0.3-1.8,0.8
			c-0.5,0.5-0.7,1.2-0.8,2.2h4.9c0-0.9-0.2-1.6-0.6-2.2C633.1,97.2,632.6,96.9,631.9,96.9z"/>
		<path class="st11" d="M639,100.3l-2.8-3.8h0.8l2.4,3.3l2.3-3.3h0.8l-2.7,3.8l2.9,4.1h-0.8l-2.5-3.5l-2.5,3.5h-0.8L639,100.3z"/>
		<path class="st11" d="M649.3,104.3l-0.2-1.3H649c-0.4,0.5-0.8,0.9-1.2,1.1s-0.9,0.3-1.5,0.3c-0.8,0-1.4-0.2-1.8-0.6
			s-0.6-0.9-0.6-1.7c0-0.8,0.3-1.4,1-1.8s1.6-0.7,2.8-0.7l1.5,0v-0.5c0-0.8-0.2-1.3-0.5-1.7c-0.3-0.4-0.8-0.6-1.5-0.6
			c-0.7,0-1.5,0.2-2.3,0.6l-0.3-0.6c0.9-0.4,1.7-0.6,2.6-0.6c0.9,0,1.5,0.2,1.9,0.7c0.4,0.5,0.6,1.2,0.6,2.1v5.3
			C649.8,104.3,649.3,104.3,649.3,104.3z M646.4,103.8c0.8,0,1.5-0.2,2-0.7c0.5-0.5,0.7-1.2,0.7-2v-0.8l-1.4,0.1
			c-1.1,0.1-1.9,0.2-2.4,0.5c-0.5,0.3-0.7,0.8-0.7,1.4c0,0.5,0.2,0.9,0.5,1.2C645.4,103.7,645.8,103.8,646.4,103.8z"/>
		<path class="st11" d="M662.3,104.3v-5.2c0-0.8-0.2-1.3-0.5-1.7c-0.3-0.4-0.8-0.5-1.4-0.5c-0.8,0-1.4,0.2-1.8,0.7s-0.6,1.1-0.6,2.1
			v4.6h-0.7v-5.4c0-1.3-0.6-2-1.8-2c-0.8,0-1.4,0.2-1.8,0.7c-0.4,0.5-0.6,1.3-0.6,2.3v4.4h-0.7v-7.9h0.6l0.2,1.1h0
			c0.2-0.4,0.5-0.7,0.9-0.9s0.8-0.3,1.3-0.3c1.2,0,2,0.5,2.4,1.4h0c0.3-0.5,0.6-0.8,1-1c0.4-0.2,0.9-0.4,1.5-0.4
			c0.9,0,1.5,0.2,1.9,0.7s0.6,1.2,0.6,2.2v5.2L662.3,104.3L662.3,104.3z"/>
		<path class="st11" d="M668.9,104.5c-1.2,0-2.1-0.5-2.7-1.4h-0.1l0,0.6c0,0.4,0,0.8,0,1.2v3h-0.7V96.4h0.6l0.1,1.1h0
			c0.5-0.9,1.4-1.3,2.6-1.3c1.1,0,1.9,0.4,2.4,1.1c0.6,0.7,0.8,1.7,0.8,3.1c0,1.3-0.3,2.3-0.9,3
			C670.7,104.1,669.9,104.5,668.9,104.5z M668.9,103.8c0.8,0,1.4-0.3,1.9-0.9s0.7-1.4,0.7-2.5c0-2.3-0.8-3.5-2.5-3.5
			c-0.9,0-1.6,0.3-2,0.8s-0.6,1.3-0.6,2.5v0.2c0,1.2,0.2,2.1,0.6,2.6C667.3,103.6,668,103.8,668.9,103.8z"/>
		<path class="st11" d="M675.1,104.3h-0.7V93h0.7V104.3z"/>
		<path class="st11" d="M681,104.5c-1.2,0-2-0.4-2.7-1.1s-1-1.7-1-3c0-1.3,0.3-2.3,0.9-3c0.6-0.8,1.5-1.1,2.5-1.1
			c0.9,0,1.7,0.3,2.2,1c0.5,0.7,0.8,1.5,0.8,2.6v0.6h-5.7c0,1.1,0.3,1.9,0.8,2.5c0.5,0.6,1.2,0.9,2.1,0.9c0.5,0,0.8,0,1.2-0.1
			c0.3-0.1,0.8-0.2,1.3-0.4v0.7c-0.4,0.2-0.9,0.3-1.2,0.4C681.8,104.4,681.4,104.5,681,104.5z M680.8,96.9c-0.8,0-1.4,0.3-1.8,0.8
			c-0.5,0.5-0.7,1.2-0.8,2.2h4.9c0-0.9-0.2-1.6-0.6-2.2C682,97.2,681.5,96.9,680.8,96.9z"/>
		<path class="st11" d="M685.8,103.8c0-0.5,0.2-0.7,0.6-0.7c0.4,0,0.6,0.2,0.6,0.7s-0.2,0.7-0.6,0.7
			C686,104.5,685.8,104.2,685.8,103.8z"/>
		<path class="st11" d="M692.7,104.5c-1.1,0-2-0.4-2.7-1.1c-0.6-0.7-1-1.7-1-3c0-1.3,0.3-2.3,1-3.1c0.7-0.7,1.6-1.1,2.7-1.1
			c0.7,0,1.3,0.1,2,0.4l-0.2,0.6c-0.7-0.2-1.3-0.3-1.8-0.3c-1,0-1.7,0.3-2.2,0.9c-0.5,0.6-0.8,1.5-0.8,2.6c0,1.1,0.2,1.9,0.8,2.5
			c0.5,0.6,1.2,0.9,2.1,0.9c0.7,0,1.4-0.1,2-0.4v0.7C694.1,104.4,693.5,104.5,692.7,104.5z"/>
		<path class="st11" d="M701.5,102.3c0,0.7-0.3,1.3-0.8,1.6c-0.5,0.4-1.3,0.6-2.3,0.6c-1.1,0-1.9-0.2-2.5-0.5v-0.8
			c0.8,0.4,1.6,0.6,2.5,0.6c0.8,0,1.4-0.1,1.8-0.4s0.6-0.6,0.6-1c0-0.4-0.2-0.7-0.5-1c-0.3-0.3-0.9-0.5-1.6-0.8
			c-0.8-0.3-1.3-0.5-1.7-0.7c-0.3-0.2-0.6-0.4-0.7-0.7c-0.2-0.3-0.2-0.6-0.2-0.9c0-0.6,0.2-1.1,0.7-1.4c0.5-0.3,1.2-0.5,2.1-0.5
			c0.9,0,1.7,0.2,2.4,0.5l-0.3,0.7c-0.8-0.3-1.5-0.5-2.2-0.5c-0.6,0-1.2,0.1-1.5,0.3c-0.4,0.2-0.6,0.5-0.6,0.9c0,0.4,0.1,0.7,0.4,1
			c0.3,0.2,0.9,0.5,1.7,0.8c0.7,0.3,1.2,0.5,1.6,0.7s0.6,0.4,0.7,0.7C701.4,101.6,701.5,101.9,701.5,102.3z"/>
		<path class="st11" d="M708.4,102.3c0,0.7-0.3,1.3-0.8,1.6c-0.5,0.4-1.3,0.6-2.3,0.6c-1.1,0-1.9-0.2-2.5-0.5v-0.8
			c0.8,0.4,1.6,0.6,2.5,0.6c0.8,0,1.4-0.1,1.8-0.4s0.6-0.6,0.6-1c0-0.4-0.2-0.7-0.5-1c-0.3-0.3-0.9-0.5-1.6-0.8
			c-0.8-0.3-1.3-0.5-1.7-0.7c-0.3-0.2-0.6-0.4-0.7-0.7c-0.2-0.3-0.2-0.6-0.2-0.9c0-0.6,0.2-1.1,0.7-1.4c0.5-0.3,1.2-0.5,2.1-0.5
			c0.9,0,1.7,0.2,2.4,0.5l-0.3,0.7c-0.8-0.3-1.5-0.5-2.2-0.5c-0.6,0-1.2,0.1-1.5,0.3c-0.4,0.2-0.6,0.5-0.6,0.9c0,0.4,0.1,0.7,0.4,1
			c0.3,0.2,0.9,0.5,1.7,0.8c0.7,0.3,1.2,0.5,1.6,0.7s0.6,0.4,0.7,0.7C708.3,101.6,708.4,101.9,708.4,102.3z"/>
	</g>
	<g class="st5">
		<path class="st11" d="M627.8,64.8c-0.4,0-0.7-0.1-1-0.2V64c0.3,0.1,0.6,0.1,0.9,0.1c0.7,0,1.1-0.4,1.1-1.3v-9.5h0.7v9.4
			c0,0.7-0.2,1.2-0.5,1.5C628.8,64.6,628.4,64.8,627.8,64.8z M628.8,51.1c0-0.5,0.2-0.7,0.5-0.7c0.2,0,0.3,0.1,0.4,0.2
			c0.1,0.1,0.1,0.3,0.1,0.5c0,0.2,0,0.4-0.1,0.5c-0.1,0.1-0.2,0.2-0.4,0.2C628.9,51.8,628.8,51.5,628.8,51.1z"/>
		<path class="st11" d="M635.1,61.3c-1,0-1.8-0.3-2.4-1s-0.9-1.7-0.9-3c0-1.3,0.3-2.4,0.9-3.1s1.4-1.1,2.5-1.1c1.1,0,2,0.4,2.6,1.3
			h0l0.1-1.1h0.6v11.5h-0.7v-3c0-0.6,0-1.2,0-1.8h0C637.2,60.9,636.3,61.3,635.1,61.3z M635.1,60.7c1,0,1.6-0.3,2.1-0.8
			c0.4-0.5,0.6-1.4,0.6-2.7v-0.1c0-1.2-0.2-2-0.6-2.6c-0.4-0.5-1.1-0.8-2-0.8c-0.9,0-1.5,0.3-1.9,0.9c-0.4,0.6-0.7,1.5-0.7,2.6
			c0,1.1,0.2,1.9,0.7,2.5C633.6,60.4,634.3,60.7,635.1,60.7z"/>
		<path class="st11" d="M641.8,53.3v5.1c0,0.8,0.2,1.4,0.5,1.7s0.9,0.5,1.6,0.5c0.9,0,1.6-0.2,2.1-0.7c0.4-0.5,0.7-1.2,0.7-2.3v-4.4
			h0.7v7.9h-0.6l-0.1-1.1h0c-0.5,0.8-1.4,1.2-2.7,1.2c-1.8,0-2.7-1-2.7-2.9v-5.2L641.8,53.3L641.8,53.3z"/>
		<path class="st11" d="M653.1,61.3c-1.2,0-2-0.4-2.7-1.1s-1-1.7-1-3c0-1.3,0.3-2.3,0.9-3c0.6-0.8,1.5-1.1,2.5-1.1
			c0.9,0,1.7,0.3,2.2,1c0.5,0.7,0.8,1.5,0.8,2.6v0.6h-5.7c0,1.1,0.3,1.9,0.8,2.5c0.5,0.6,1.2,0.9,2.1,0.9c0.5,0,0.8,0,1.2-0.1
			c0.3-0.1,0.8-0.2,1.3-0.4v0.7c-0.4,0.2-0.9,0.3-1.2,0.4C654,61.3,653.6,61.3,653.1,61.3z M652.9,53.8c-0.8,0-1.4,0.3-1.8,0.8
			c-0.5,0.5-0.7,1.2-0.8,2.2h4.9c0-0.9-0.2-1.6-0.6-2.2C654.2,54,653.6,53.8,652.9,53.8z"/>
		<path class="st11" d="M661.2,53.1c0.3,0,0.7,0,1.1,0.1l-0.1,0.7c-0.3-0.1-0.7-0.1-1-0.1c-0.7,0-1.2,0.3-1.7,0.9
			c-0.4,0.6-0.6,1.3-0.6,2.2v4.4h-0.7v-7.9h0.6l0.1,1.4h0.1c0.3-0.6,0.7-1,1-1.2C660.2,53.2,660.7,53.1,661.2,53.1z"/>
		<path class="st11" d="M662.6,53.3h0.7l1.7,4.4c0.5,1.4,0.8,2.3,1,2.8h0c0.2-0.6,0.5-1.6,1-2.8l1.7-4.4h0.7l-3.5,9.2
			c-0.3,0.7-0.5,1.3-0.7,1.5c-0.2,0.3-0.4,0.5-0.7,0.6c-0.3,0.1-0.6,0.2-0.9,0.2c-0.3,0-0.6-0.1-0.9-0.2V64c0.3,0.1,0.6,0.1,0.9,0.1
			c0.2,0,0.5-0.1,0.7-0.2c0.2-0.1,0.4-0.3,0.5-0.5c0.2-0.2,0.3-0.6,0.5-1.2c0.2-0.5,0.3-0.9,0.4-1L662.6,53.3z"/>
		<path class="st11" d="M670.6,60.6c0-0.5,0.2-0.7,0.6-0.7c0.4,0,0.6,0.2,0.6,0.7s-0.2,0.7-0.6,0.7
			C670.8,61.3,670.6,61.1,670.6,60.6z"/>
		<path class="st11" d="M673.2,64.8c-0.4,0-0.7-0.1-1-0.2V64c0.3,0.1,0.6,0.1,0.9,0.1c0.7,0,1.1-0.4,1.1-1.3v-9.5h0.7v9.4
			c0,0.7-0.2,1.2-0.5,1.5C674.2,64.6,673.8,64.8,673.2,64.8z M674.2,51.1c0-0.5,0.2-0.7,0.5-0.7c0.2,0,0.3,0.1,0.4,0.2
			c0.1,0.1,0.1,0.3,0.1,0.5c0,0.2,0,0.4-0.1,0.5c-0.1,0.1-0.2,0.2-0.4,0.2C674.3,51.8,674.2,51.5,674.2,51.1z"/>
		<path class="st11" d="M682.6,59.1c0,0.7-0.3,1.3-0.8,1.6c-0.5,0.4-1.3,0.6-2.3,0.6c-1.1,0-1.9-0.2-2.5-0.5v-0.8
			c0.8,0.4,1.6,0.6,2.5,0.6c0.8,0,1.4-0.1,1.8-0.4c0.4-0.3,0.6-0.6,0.6-1c0-0.4-0.2-0.7-0.5-1c-0.3-0.3-0.9-0.5-1.6-0.8
			c-0.8-0.3-1.3-0.5-1.7-0.7c-0.3-0.2-0.6-0.4-0.7-0.7s-0.2-0.6-0.2-0.9c0-0.6,0.2-1.1,0.7-1.4c0.5-0.3,1.2-0.5,2.1-0.5
			c0.9,0,1.7,0.2,2.4,0.5l-0.3,0.7c-0.8-0.3-1.5-0.5-2.2-0.5c-0.6,0-1.2,0.1-1.5,0.3c-0.4,0.2-0.6,0.5-0.6,0.9c0,0.4,0.1,0.7,0.4,1
			c0.3,0.2,0.9,0.5,1.7,0.8c0.7,0.3,1.2,0.5,1.6,0.7s0.6,0.4,0.7,0.7C682.5,58.5,682.6,58.8,682.6,59.1z"/>
	</g>
	<g>
		<path class="st11" d="M612.2,69.4h-20.4c-0.4,0-0.7-0.3-0.7-0.7V45.2c0-0.4,0.3-0.7,0.7-0.7h20.4c0.4,0,0.7,0.3,0.7,0.7v23.5
			C612.9,69.1,612.5,69.4,612.2,69.4z"/>
		<path class="st14" d="M614.2,67.4h-20.4c-0.4,0-0.7-0.3-0.7-0.7V43c0-0.4,0.3-0.7,0.7-0.7h20.4c0.4,0,0.7,0.3,0.7,0.7v23.7
			C614.9,67.1,614.6,67.4,614.2,67.4z"/>
		<g>
			<line class="st15" x1="597.2" y1="62.7" x2="605" y2="62.7"/>
			<line class="st15" x1="597.2" y1="55.7" x2="610" y2="55.7"/>
			<line class="st15" x1="597.2" y1="59.2" x2="610" y2="59.2"/>
			<line class="st15" x1="597.2" y1="48.8" x2="607.6" y2="48.8"/>
			<line class="st15" x1="597.2" y1="52.3" x2="610" y2="52.3"/>
		</g>
	</g>
	<g>
		<path class="st11" d="M612.2,112.5h-20.4c-0.4,0-0.7-0.3-0.7-0.7V88.3c0-0.4,0.3-0.7,0.7-0.7h20.4c0.4,0,0.7,0.3,0.7,0.7v23.5
			C612.9,112.2,612.5,112.5,612.2,112.5z"/>
		<path class="st14" d="M614.2,110.6h-20.4c-0.4,0-0.7-0.3-0.7-0.7V86.1c0-0.4,0.3-0.7,0.7-0.7h20.4c0.4,0,0.7,0.3,0.7,0.7v23.7
			C614.9,110.3,614.6,110.6,614.2,110.6z"/>
		<g>
			<line class="st15" x1="597.2" y1="105.9" x2="605" y2="105.9"/>
			<line class="st15" x1="597.2" y1="98.9" x2="610" y2="98.9"/>
			<line class="st15" x1="597.2" y1="102.4" x2="610" y2="102.4"/>
			<line class="st15" x1="597.2" y1="92" x2="607.6" y2="92"/>
			<line class="st15" x1="597.2" y1="95.4" x2="610" y2="95.4"/>
		</g>
	</g>
	<g>
		<path class="st11" d="M618.5,154.4h-31.7c-0.4,0-0.7-0.3-0.7-0.7v-23.1c0-0.4,0.3-0.7,0.7-0.7h31.7c0.4,0,0.7,0.3,0.7,0.7v23.1
			C619.2,154.1,618.9,154.4,618.5,154.4z"/>
		<polygon class="st12" points="587.8,143.2 593.3,147 602.5,139.3 606.6,142.3 610.4,138.8 617.6,144.6 617.5,152.9 587.9,152.9 		
			"/>
		<circle class="st12" cx="594.9" cy="137.9" r="2.4"/>
	</g>
</g>
</svg>
